<svg width="172" height="37" viewBox="0 0 172 37" fill="none" xmlns="http://www.w3.org/2000/svg">
<path d="M18.5498 0.567383C28.4858 0.567383 36.5322 8.55222 36.5322 18.3916C36.5322 28.231 28.4858 36.2158 18.5498 36.2158C8.61385 36.2157 0.56739 28.2309 0.567383 18.3916C0.567383 8.55228 8.61385 0.567484 18.5498 0.567383Z" stroke="black" stroke-width="1.13504"/>
<path d="M21.5948 19.0246L22.0367 15.9663H19.2746V13.9817C19.2746 13.1452 19.6603 12.3293 20.8975 12.3293H22.153V9.72577C22.153 9.72577 21.0138 9.51929 19.9243 9.51929C17.6498 9.51929 16.1632 10.9842 16.1632 13.6358V15.9669H13.6348V19.0251H16.1632V26.4185H19.2746V19.0251L21.5948 19.0246Z" fill="black"/>
<path d="M85.6494 0.567383C95.5855 0.567383 103.632 8.55222 103.632 18.3916C103.632 28.231 95.5855 36.2158 85.6494 36.2158C75.7135 36.2157 67.667 28.2309 67.667 18.3916C67.667 8.55228 75.7135 0.567484 85.6494 0.567383Z" stroke="black" stroke-width="1.13504"/>
<path d="M93.6892 14.1291C93.1013 14.3896 92.4697 14.5657 91.8057 14.6452C92.4908 14.2353 93.0034 13.5901 93.2477 12.83C92.6041 13.2123 91.8996 13.4815 91.1649 13.6257C90.6709 13.0982 90.0165 12.7485 89.3034 12.6311C88.5903 12.5136 87.8584 12.6348 87.2212 12.9759C86.5841 13.317 86.0774 13.859 85.7798 14.5176C85.4822 15.1762 85.4104 15.9146 85.5755 16.6182C84.2712 16.5527 82.9953 16.2137 81.8305 15.6232C80.6657 15.0327 79.6381 14.2039 78.8144 13.1905C78.5328 13.6764 78.3708 14.2397 78.3708 14.8396C78.3705 15.3797 78.5035 15.9115 78.758 16.3878C79.0125 16.8641 79.3806 17.2703 79.8298 17.5702C79.3089 17.5536 78.7995 17.4129 78.344 17.1597V17.202C78.344 17.9594 78.606 18.6936 79.0856 19.2799C79.5652 19.8661 80.2329 20.2684 80.9754 20.4184C80.4922 20.5492 79.9856 20.5685 79.4939 20.4748C79.7034 21.1265 80.1114 21.6965 80.6609 22.1048C81.2104 22.5131 81.8738 22.7394 82.5583 22.7519C81.3963 23.6641 79.9614 24.1589 78.4842 24.1567C78.2225 24.1568 77.9611 24.1415 77.7012 24.1109C79.2006 25.075 80.9461 25.5867 82.7287 25.5847C88.7631 25.5847 92.062 20.5867 92.062 16.2521C92.062 16.1113 92.0585 15.969 92.0521 15.8282C92.6938 15.3642 93.2477 14.7895 93.6878 14.1312L93.6892 14.1291Z" fill="black"/>
<path d="M152.749 0.567383C162.685 0.567383 170.731 8.55222 170.731 18.3916C170.731 28.231 162.685 36.2158 152.749 36.2158C142.813 36.2157 134.767 28.2309 134.767 18.3916C134.767 8.55228 142.813 0.567484 152.749 0.567383Z" stroke="black" stroke-width="1.13504"/>
<path fill-rule="evenodd" clip-rule="evenodd" d="M150.271 14.2761H153.04V15.6554C153.439 14.8621 154.462 14.1493 155.998 14.1493C158.944 14.1493 159.643 15.7284 159.643 18.6256V23.9914H156.661V19.2855C156.661 17.6356 156.262 16.7051 155.247 16.7051C153.839 16.7051 153.253 17.7079 153.253 19.2847V23.9914H150.271V14.2761ZM145.157 23.8647H148.14V14.1493H145.157V23.8647ZM148.567 10.9815C148.567 11.2314 148.517 11.4789 148.421 11.7096C148.325 11.9402 148.183 12.1494 148.005 12.325C147.645 12.6833 147.157 12.8839 146.648 12.8826C146.141 12.8823 145.654 12.6822 145.293 12.3257C145.116 12.1496 144.975 11.9401 144.879 11.7095C144.783 11.4788 144.733 11.2314 144.732 10.9815C144.732 10.4767 144.934 9.99363 145.294 9.63725C145.655 9.28025 146.142 9.0801 146.649 9.08032C147.158 9.08032 147.645 9.28088 148.005 9.63725C148.365 9.99363 148.567 10.4767 148.567 10.9815Z" fill="black"/>
</svg>
