<svg width="16" height="15" viewBox="0 0 16 15" fill="none" xmlns="http://www.w3.org/2000/svg">
<path fill-rule="evenodd" clip-rule="evenodd" d="M6.27114 5.27609H9.04013V6.65536C9.439 5.86209 10.4619 5.14934 11.9985 5.14934C14.9442 5.14934 15.6435 6.72842 15.6435 9.62565V14.9914H12.6613V10.2855C12.6613 8.63555 12.2624 7.7051 11.247 7.7051C9.83862 7.7051 9.25336 8.70787 9.25336 10.2847V14.9914H6.27114V5.27609ZM1.15739 14.8647H4.1396V5.14934H1.15739V14.8647ZM4.5668 1.98148C4.56692 2.23145 4.51734 2.47894 4.42096 2.70958C4.32459 2.94022 4.18333 3.1494 4.0054 3.32497C3.64485 3.6833 3.15682 3.88388 2.6485 3.88265C2.14106 3.88231 1.65416 3.68224 1.29308 3.32572C1.11579 3.14955 0.975015 2.94014 0.878807 2.70947C0.782599 2.4788 0.732854 2.23141 0.732422 1.98148C0.732422 1.47674 0.933721 0.993626 1.29382 0.637251C1.65459 0.280249 2.1417 0.0800992 2.64924 0.0803225C3.15771 0.0803225 3.6453 0.280876 4.0054 0.637251C4.36476 0.993626 4.5668 1.47674 4.5668 1.98148Z" fill="black"/>
</svg>
