<svg width="220" height="86" viewBox="0 0 220 86" fill="none" xmlns="http://www.w3.org/2000/svg">
<g clip-path="url(#clip0_0_8)">
<path d="M98.3115 35.1842C96.9182 35 95.6559 34.4007 94.5166 33.3899C94.068 32.9981 93.8417 32.622 93.8417 32.2616C93.8417 32.1284 93.8735 31.9952 93.937 31.8581C94.0005 31.7131 94.1077 31.576 94.2586 31.4467C94.4094 31.3175 94.5642 31.2274 94.723 31.1764C94.9016 31.1373 95.0723 31.1137 95.2391 31.1137C95.3661 31.1137 95.4891 31.1255 95.6162 31.1451C95.9099 31.1882 96.1441 31.2861 96.3228 31.4389C96.426 31.5329 96.6205 31.6505 96.9023 31.7954C97.1842 31.9404 97.462 32.0657 97.7359 32.1676C98.0813 32.293 98.4386 32.3517 98.8038 32.3517C99.169 32.3517 99.5183 32.2969 99.8875 32.1833C100.642 31.9678 101.309 31.6191 101.888 31.1373C102.468 30.6554 102.801 30.2558 102.885 29.9385C102.968 29.6211 103.012 29.4135 103.012 29.3195C103.012 28.9081 102.777 28.5359 102.305 28.2029C101.721 27.7994 100.646 27.5644 99.0896 27.4899C97.8431 27.4586 96.6205 27.2588 95.4097 26.8866C94.203 26.5144 93.1788 25.915 92.3452 25.0845C91.5076 24.254 91.0273 23.1374 90.9003 21.731V21.4372C90.9003 20.1757 91.2734 19.0513 92.0157 18.0641C92.8295 16.9907 93.8973 16.117 95.2152 15.4471C96.5331 14.7772 97.6407 14.3972 98.5378 14.311C99.4349 14.2248 100.042 14.1778 100.36 14.1778C101.448 14.1778 102.456 14.3658 103.389 14.7341C104.087 15.0318 104.746 15.4706 105.358 16.0504C105.969 16.6302 106.406 17.2179 106.668 17.8173C106.719 17.9622 106.783 18.2051 106.862 18.546C106.941 18.8868 107.009 19.2316 107.065 19.5763C107.12 19.9211 107.152 20.1875 107.152 20.3755C107.14 21.4058 106.715 22.017 105.866 22.2011C105.751 22.2207 105.635 22.2325 105.52 22.2325C105.31 22.2325 105.108 22.1972 104.909 22.1228C104.607 22.0092 104.365 21.8289 104.187 21.5821C104.143 21.5195 104.111 21.4529 104.083 21.3823C104.056 21.3118 104.036 21.2139 104.02 21.0885C104.004 20.9631 103.992 20.7947 103.98 20.5792C103.853 19.5371 103.496 18.879 102.908 18.6047C102.317 18.3305 101.844 18.1934 101.487 18.1934C100.975 18.1934 100.447 18.3579 99.9033 18.6909C99.2245 19.1532 98.7561 19.639 98.4981 20.1444C98.2441 20.6497 98.1131 21.065 98.1131 21.3823C98.1131 21.5782 98.1488 21.7663 98.2242 21.9386C98.3393 22.1854 98.6251 22.3931 99.0777 22.5655C99.5342 22.7339 100.237 22.9024 101.186 23.0669C102.21 23.2432 103.004 23.4117 103.571 23.5684C104.135 23.729 104.726 23.9641 105.342 24.2736C106.628 24.9121 107.442 25.6055 107.779 26.3499C108.116 27.0943 108.291 27.7485 108.291 28.3166C108.291 28.7397 108.224 29.1667 108.089 29.6015C107.783 30.6436 107.18 31.6309 106.271 32.5594C105.298 33.5192 104.163 34.2048 102.861 34.62C101.559 35.0353 100.372 35.239 99.3079 35.239C98.9864 35.239 98.6569 35.2234 98.3195 35.192L98.3115 35.1842Z" fill="#42C2B2"/>
<path d="M117.794 35.3254C115.607 35.1805 113.705 34.2794 112.086 32.6144C110.883 31.3647 110.109 29.9269 109.764 28.2933C109.668 27.7997 109.617 27.2864 109.605 26.7615C109.593 26.2365 109.589 25.8722 109.589 25.6763C109.589 25.0887 109.609 24.5559 109.653 24.0818C110.093 20.1407 111.673 17.3121 114.392 15.5962C115.972 14.5541 117.572 14.0331 119.191 14.0331C119.307 14.0331 119.426 14.037 119.553 14.0488C120.775 14.1193 121.835 14.4523 122.736 15.0399C123.633 15.6276 124.241 16.3014 124.554 17.0614C124.868 17.8214 125.023 18.5188 125.023 19.1574C125.023 19.6118 124.967 20.0858 124.852 20.5834C124.328 22.409 123.312 23.8664 121.807 24.9476C120.303 26.0328 118.604 26.644 116.71 26.7889L116.147 26.8359L116.179 27.0827C116.345 28.4774 116.726 29.5391 117.322 30.2717C117.616 30.6635 117.901 30.9534 118.183 31.1375C118.465 31.3216 118.806 31.4587 119.203 31.541C119.414 31.5919 119.6 31.6194 119.767 31.6194C119.862 31.6194 119.946 31.6154 120.017 31.6037C120.235 31.5723 120.521 31.4744 120.863 31.3099C121.093 31.1963 121.28 31.0905 121.426 30.9847C121.573 30.8828 121.728 30.7379 121.895 30.5498C122.272 30.1698 122.558 29.8799 122.756 29.684C122.955 29.4882 123.109 29.351 123.217 29.2727C123.328 29.1943 123.447 29.1356 123.57 29.0964C123.78 29.0259 123.987 28.9867 124.197 28.9867C124.376 28.9867 124.546 29.0141 124.713 29.0651C125.078 29.1787 125.368 29.3902 125.575 29.6997C125.71 29.9387 125.777 30.1894 125.777 30.4597C125.777 30.7301 125.714 30.9847 125.591 31.2629C125.412 31.5919 125.035 32.0307 124.459 32.5713C123.884 33.112 123.272 33.6017 122.625 34.0365C121.724 34.6242 120.783 35.0277 119.803 35.2432C119.573 35.2863 119.334 35.3098 119.088 35.3215C118.842 35.3333 118.656 35.3372 118.533 35.3372C118.29 35.3372 118.04 35.3333 117.778 35.3215L117.794 35.3254ZM117.687 23.6979C118.616 23.408 119.307 23.0985 119.755 22.7694C120.593 22.1113 121.109 21.5119 121.307 20.9751C121.506 20.4384 121.605 20.0153 121.605 19.7058C121.605 19.4668 121.557 19.2475 121.462 19.0398C121.276 18.6285 120.946 18.4208 120.474 18.4208L120.303 18.4365C119.739 18.4874 119.053 18.9301 118.247 19.7685C117.294 20.7479 116.679 21.9115 116.397 23.2513C116.333 23.5098 116.298 23.6783 116.29 23.7527C116.278 23.8311 116.274 23.8781 116.274 23.9016C116.274 23.9525 116.29 23.9839 116.321 23.9956C116.341 24.0074 116.373 24.0113 116.417 24.0113C116.46 24.0113 116.504 24.0074 116.56 23.9956C116.643 23.9839 116.794 23.9525 117.008 23.8938C117.223 23.8389 117.449 23.7723 117.691 23.7018L117.687 23.6979Z" fill="#42C2B2"/>
<path d="M129.56 35.8191C129.194 35.7055 128.889 35.5214 128.651 35.2628C128.504 35.1179 128.393 34.9807 128.321 34.8436C128.25 34.7104 128.194 34.542 128.162 34.3422C128.131 34.1424 128.099 33.8603 128.067 33.4999C128.055 33.2609 128.039 33.0023 128.011 32.7242C127.984 32.446 127.964 32.2071 127.94 32.0112C127.928 31.8153 127.912 31.5685 127.884 31.2747C127.861 30.9808 127.837 30.7027 127.813 30.448C127.801 30.1895 127.785 29.9466 127.765 29.7115C127.745 29.4765 127.73 29.3119 127.718 29.2101C127.706 29.1082 127.69 28.928 127.67 28.6773C127.65 28.4265 127.626 28.1601 127.607 27.8781C127.587 27.5882 127.567 27.2904 127.543 26.9809C127.523 26.6714 127.503 26.4207 127.495 26.2209C127.476 26.025 127.456 25.7821 127.432 25.4922C127.412 25.2023 127.388 24.9359 127.368 24.6891C127.356 24.5872 127.349 24.4658 127.337 24.3326C127.317 24.0662 127.293 23.7724 127.265 23.459C127.237 23.1456 127.218 22.8478 127.194 22.5697C127.079 21.0849 127.019 19.9448 127.019 19.1496C127.019 18.3543 127.083 17.6961 127.206 17.1986C127.424 16.3093 127.9 15.702 128.635 15.373C128.655 15.3612 128.682 15.3534 128.714 15.3416C128.797 15.3024 128.881 15.2633 128.956 15.2241C129.036 15.1888 129.091 15.1614 129.123 15.1379C129.29 15.0556 129.492 14.9851 129.726 14.9303C129.961 14.8754 130.175 14.8441 130.361 14.8441C131.282 14.8441 132.279 15.369 133.359 16.4229C133.64 16.7128 133.95 17.0458 134.291 17.4219C134.633 17.798 134.927 18.1467 135.177 18.4679C135.196 18.4992 135.244 18.5541 135.32 18.6364C135.371 18.7069 135.427 18.7813 135.49 18.8518C136.221 19.7607 137.11 20.936 138.158 22.3816C138.428 22.7616 138.698 23.1338 138.956 23.4981C139.214 23.8625 139.416 24.1328 139.551 24.3169C139.678 24.4815 139.809 24.6617 139.952 24.8576C140.095 25.0534 140.206 25.2141 140.289 25.3394C140.373 25.4648 140.452 25.5667 140.528 25.6489C140.599 25.7312 140.643 25.7743 140.655 25.7743C140.675 25.7743 140.686 25.7273 140.686 25.6333C140.686 25.5392 140.682 25.4217 140.671 25.2768C140.639 24.885 140.607 24.2699 140.567 23.4276C140.528 22.5853 140.5 21.7078 140.472 20.795C140.444 19.8822 140.432 19.1574 140.432 18.6207V18.3269C140.432 17.0654 140.496 16.1408 140.623 15.5414C140.758 14.9107 141.016 14.4366 141.393 14.1154C141.611 13.9195 141.83 13.7746 142.044 13.6805C142.258 13.5865 142.516 13.5317 142.822 13.5121H142.993C143.108 13.5121 143.207 13.516 143.29 13.5278C143.406 13.5395 143.537 13.5748 143.683 13.6374C144.497 13.9665 145.013 14.6443 145.22 15.6668C145.283 16.1016 145.315 16.8029 145.315 17.7706V18.5619C145.303 19.9566 145.248 21.3748 145.144 22.8204C145.124 23.079 145.105 23.3414 145.089 23.6078C145.073 23.8782 145.061 24.0936 145.049 24.2582C145.037 24.411 145.025 24.6225 145.009 24.8928C144.993 25.1592 144.978 25.4256 144.954 25.6842C144.87 26.8516 144.787 28.7791 144.704 31.4745C144.692 31.9485 144.684 32.3167 144.672 32.5753C144.66 32.8339 144.648 33.0258 144.624 33.1473C144.604 33.2727 144.577 33.3588 144.545 33.4098C144.251 34.0092 143.719 34.3696 142.945 34.495C142.663 34.538 142.385 34.5576 142.115 34.5576C141.846 34.5576 141.607 34.538 141.409 34.495C140.627 34.2795 140.012 33.8172 139.575 33.1159C139.511 33.0219 139.432 32.9083 139.333 32.7751C139.234 32.6419 139.13 32.5126 139.027 32.3873C138.559 31.8505 138.007 31.2041 137.372 30.4441C136.741 29.6841 136.145 28.9554 135.589 28.2542C134.752 27.1925 134.053 26.3071 133.49 25.6058C133.196 25.2572 132.973 24.9829 132.815 24.7949C132.656 24.6029 132.549 24.4658 132.485 24.3757C132.422 24.2895 132.374 24.2268 132.342 24.1955C132.322 24.1641 132.303 24.1446 132.287 24.1328C132.271 24.121 132.259 24.1171 132.247 24.1171L132.231 24.1328C132.211 24.1641 132.195 24.4893 132.184 25.1083C132.172 25.7273 132.164 26.4912 132.152 27.4001C132.132 29.8565 132.108 31.6312 132.088 32.7163C132.068 33.8055 132.037 34.3931 131.993 34.4754C131.775 35.1257 131.334 35.5645 130.675 35.7917C130.496 35.8426 130.346 35.87 130.223 35.87H129.972C129.806 35.87 129.663 35.8544 129.548 35.823L129.56 35.8191Z" fill="#42C2B2"/>
<path d="M150.266 35.2155C149.357 34.957 148.738 34.3968 148.416 33.527C148.261 33.1784 148.122 31.9482 148.007 29.8405C147.892 28.0541 147.813 26.5497 147.773 25.3196C147.729 24.0894 147.709 22.7535 147.709 21.3118C147.709 19.4862 147.749 18.213 147.836 17.4961C147.924 16.7791 148.094 16.1837 148.356 15.7096C148.742 14.9966 149.182 14.55 149.674 14.362C150.167 14.1739 150.564 14.0838 150.869 14.0838C151.234 14.0838 151.612 14.17 151.997 14.3463L152.278 14.503L152.89 14.3776C153.299 14.2954 153.938 14.2444 154.803 14.2209C155.156 14.2092 155.45 14.2052 155.68 14.2052H155.994C156.264 14.217 156.566 14.2523 156.887 14.3149C157.379 14.3972 157.888 14.5226 158.415 14.695C158.943 14.8634 159.404 15.0515 159.789 15.2591C161.504 16.1876 162.794 17.4765 163.663 19.1297C164.29 20.3794 164.604 21.7349 164.604 23.2001V23.4783C164.56 25.0375 164.175 26.5497 163.445 28.0149C162.504 29.8405 161.083 31.3958 159.178 32.673C158.697 32.9825 158.138 33.292 157.498 33.6015C156.859 33.911 156.284 34.1499 155.772 34.3145C155.303 34.4673 154.716 34.624 154.017 34.7768C153.315 34.9335 152.751 35.0353 152.322 35.0863C152.207 35.098 152.088 35.1137 151.969 35.1411C151.85 35.1685 151.758 35.192 151.695 35.2116C151.568 35.2626 151.393 35.29 151.163 35.29H151.056C150.774 35.29 150.512 35.2626 150.27 35.2116L150.266 35.2155ZM155.331 29.5663C156.188 28.8141 156.971 27.917 157.677 26.8788C158.384 25.8406 158.904 24.8377 159.237 23.8661C159.352 23.4861 159.42 23.1414 159.432 22.8358C159.448 22.5302 159.455 22.3343 159.455 22.2403C159.455 21.8564 159.424 21.5273 159.36 21.2492C159.142 20.3834 158.65 19.7174 157.884 19.2512C156.923 18.6753 155.827 18.3854 154.605 18.3854H153.946V21.4646C153.946 22.6007 153.934 23.5723 153.914 24.3833C153.894 25.1942 153.858 26.0483 153.803 26.9454C153.763 27.6271 153.719 28.2657 153.688 28.8651C153.652 29.4644 153.628 29.8758 153.616 30.103L153.569 30.863L154.212 30.4125C154.398 30.2872 154.597 30.1461 154.807 29.9855C155.017 29.8249 155.188 29.6838 155.327 29.5585L155.331 29.5663Z" fill="#42C2B2"/>
<path d="M168.744 35.1529C167.843 34.8748 167.275 34.295 167.033 33.4174C167.013 33.3156 166.994 33.1354 166.978 32.8768C166.962 32.6182 166.954 32.3283 166.954 32.011C166.954 31.7211 166.95 31.4625 166.938 31.2353C166.926 31.0081 166.922 30.8788 166.922 30.8475C166.902 30.8357 166.871 30.4596 166.827 29.7113C166.783 28.9631 166.716 27.7016 166.624 25.9269L166.577 25.1982C166.537 24.4656 166.493 23.7291 166.45 22.9848C166.398 22.0994 166.37 21.1278 166.37 20.074V19.1455C166.382 18.5265 166.39 18.0525 166.402 17.7273C166.414 17.4021 166.426 17.1553 166.45 16.9908C166.47 16.8262 166.501 16.6774 166.545 16.5402C167.013 14.9418 167.99 14.1387 169.463 14.1387H169.574C169.792 14.1505 169.971 14.1701 170.106 14.2014C170.241 14.2328 170.392 14.2876 170.558 14.3699C171.428 14.7812 171.991 15.4746 172.253 16.4462C172.4 16.9712 172.472 17.9153 172.472 19.2787C172.472 20.4226 172.42 21.8682 172.313 23.6155C172.293 24.1013 172.261 24.7124 172.226 25.449C172.19 26.1855 172.154 26.875 172.122 27.5175C172.091 28.1482 172.059 28.7398 172.027 29.2922C171.995 29.8445 171.975 30.2285 171.964 30.4439C171.944 30.6516 171.928 30.9101 171.916 31.2275C171.904 31.5448 171.9 31.8347 171.9 32.1011C171.9 32.771 171.852 33.2725 171.749 33.6016C171.65 33.9306 171.463 34.2323 171.193 34.4987C170.681 34.9845 170.09 35.2274 169.423 35.2274C169.205 35.2274 168.974 35.2 168.732 35.149L168.744 35.1529Z" fill="#42C2B2"/>
<path d="M177.183 35.8191C176.818 35.7055 176.512 35.5214 176.274 35.2628C176.127 35.1179 176.016 34.9807 175.944 34.8436C175.873 34.7104 175.817 34.542 175.786 34.3422C175.754 34.1424 175.722 33.8603 175.69 33.4999C175.678 33.2609 175.663 33.0023 175.635 32.7242C175.607 32.446 175.587 32.2071 175.563 32.0112C175.551 31.8153 175.536 31.5685 175.508 31.2747C175.484 30.9808 175.46 30.7027 175.436 30.448C175.424 30.1895 175.409 29.9466 175.389 29.7115C175.369 29.4765 175.353 29.3119 175.341 29.2101C175.329 29.1082 175.313 28.928 175.293 28.6773C175.274 28.4265 175.25 28.1601 175.23 27.8781C175.21 27.5882 175.19 27.2904 175.166 26.9809C175.147 26.6714 175.127 26.4207 175.119 26.2209C175.099 26.025 175.079 25.7821 175.055 25.4922C175.035 25.2023 175.012 24.9359 174.992 24.6891C174.98 24.5872 174.972 24.4658 174.96 24.3326C174.94 24.0662 174.916 23.7724 174.889 23.459C174.861 23.1456 174.841 22.8478 174.817 22.5697C174.702 21.0849 174.642 19.9448 174.642 19.1496C174.642 18.3543 174.706 17.6961 174.829 17.1986C175.047 16.3093 175.524 15.702 176.258 15.373C176.278 15.3612 176.306 15.3534 176.337 15.3416C176.421 15.3024 176.504 15.2633 176.58 15.2241C176.659 15.1888 176.715 15.1614 176.746 15.1379C176.913 15.0556 177.115 14.9851 177.35 14.9303C177.584 14.8754 177.798 14.8441 177.985 14.8441C178.906 14.8441 179.902 15.369 180.982 16.4229C181.264 16.7128 181.573 17.0458 181.915 17.4219C182.256 17.798 182.55 18.1467 182.8 18.4679C182.82 18.4992 182.867 18.5541 182.943 18.6364C182.994 18.7069 183.05 18.7813 183.114 18.8518C183.844 19.7607 184.733 20.936 185.781 22.3816C186.051 22.7616 186.321 23.1338 186.579 23.4981C186.837 23.8625 187.039 24.1328 187.174 24.3169C187.301 24.4815 187.432 24.6617 187.575 24.8576C187.718 25.0534 187.829 25.2141 187.913 25.3394C187.996 25.4648 188.076 25.5667 188.151 25.6489C188.222 25.7312 188.266 25.7743 188.278 25.7743C188.298 25.7743 188.31 25.7273 188.31 25.6333C188.31 25.5392 188.306 25.4217 188.294 25.2768C188.262 24.885 188.23 24.2699 188.191 23.4276C188.151 22.5853 188.123 21.7078 188.095 20.795C188.068 19.8822 188.056 19.1574 188.056 18.6207V18.3269C188.056 17.0654 188.119 16.1408 188.246 15.5414C188.381 14.9107 188.639 14.4366 189.016 14.1154C189.235 13.9195 189.453 13.7746 189.667 13.6805C189.882 13.5865 190.14 13.5317 190.445 13.5121H190.616C190.731 13.5121 190.83 13.516 190.914 13.5278C191.029 13.5395 191.16 13.5748 191.307 13.6374C192.121 13.9665 192.637 14.6443 192.843 15.6668C192.907 16.1016 192.938 16.8029 192.938 17.7706V18.5619C192.926 19.9566 192.871 21.3748 192.768 22.8204C192.748 23.079 192.728 23.3414 192.712 23.6078C192.696 23.8782 192.684 24.0936 192.672 24.2582C192.66 24.411 192.649 24.6225 192.633 24.8928C192.617 25.1592 192.601 25.4256 192.577 25.6842C192.494 26.8516 192.41 28.7791 192.327 31.4745C192.315 31.9485 192.307 32.3167 192.295 32.5753C192.283 32.8339 192.271 33.0258 192.248 33.1473C192.228 33.2727 192.2 33.3588 192.168 33.4098C191.874 34.0092 191.343 34.3696 190.568 34.495C190.287 34.538 190.009 34.5576 189.739 34.5576C189.469 34.5576 189.231 34.538 189.032 34.495C188.25 34.2795 187.635 33.8172 187.198 33.1159C187.135 33.0219 187.055 32.9083 186.956 32.7751C186.857 32.6419 186.754 32.5126 186.65 32.3873C186.182 31.8505 185.63 31.2041 184.995 30.4441C184.364 29.6841 183.769 28.9554 183.213 28.2542C182.375 27.1925 181.677 26.3071 181.113 25.6058C180.819 25.2572 180.597 24.9829 180.438 24.7949C180.279 24.6029 180.172 24.4658 180.109 24.3757C180.045 24.2895 179.997 24.2268 179.966 24.1955C179.946 24.1641 179.926 24.1446 179.91 24.1328C179.894 24.121 179.882 24.1171 179.87 24.1171L179.854 24.1328C179.835 24.1641 179.819 24.4893 179.807 25.1083C179.795 25.7273 179.787 26.4912 179.775 27.4001C179.755 29.8565 179.731 31.6312 179.712 32.7163C179.692 33.8055 179.66 34.3931 179.616 34.4754C179.398 35.1257 178.957 35.5645 178.298 35.7917C178.12 35.8426 177.969 35.87 177.846 35.87H177.596C177.429 35.87 177.286 35.8544 177.171 35.823L177.183 35.8191Z" fill="#42C2B2"/>
<path d="M201.605 35.1058C199.795 34.8394 198.231 33.954 196.913 32.4574C196.087 31.4467 195.424 30.2714 194.92 28.9276C194.543 27.8229 194.356 26.6202 194.356 25.3195C194.356 25.0805 194.36 24.8376 194.372 24.5908C194.467 23.0003 194.821 21.4567 195.44 19.9602C196.663 17.2061 198.461 15.4 200.835 14.5421C201.232 14.4089 201.581 14.3188 201.879 14.2796C202.176 14.2404 202.562 14.2169 203.03 14.2169C205.07 14.2169 206.678 14.9299 207.861 16.352C208.635 17.3236 209.02 18.2168 209.02 19.0317C209.02 20.1992 208.556 20.8064 207.623 20.8573H207.559C207.329 20.8573 207.131 20.8025 206.964 20.6889C206.777 20.5635 206.583 20.3441 206.384 20.0229C205.987 19.3843 205.586 18.9533 205.177 18.7379C204.812 18.5616 204.411 18.4793 203.979 18.4832C203.546 18.4871 203.177 18.589 202.871 18.7849C201.732 19.5606 200.962 21.0023 200.565 23.1178C200.513 23.4077 200.477 23.6976 200.458 23.9836C200.438 24.2735 200.426 24.6692 200.426 25.1746V25.4057C200.426 26.1814 200.474 26.8004 200.569 27.2627C200.672 27.7798 200.878 28.3204 201.18 28.8885C201.819 30.1264 202.562 30.8512 203.407 31.0549C203.554 31.1059 203.685 31.1333 203.8 31.1333C203.915 31.1333 204.054 31.1059 204.225 31.0549C204.34 31.0353 204.459 31.0079 204.586 30.9687C204.713 30.9335 204.804 30.8982 204.868 30.8669C205.015 30.8042 205.205 30.6671 205.44 30.4555C205.674 30.244 205.876 30.0246 206.043 29.7974C206.114 29.6838 206.21 29.5349 206.317 29.3468C206.424 29.1588 206.515 28.9943 206.583 28.8532C206.65 28.7083 206.686 28.6142 206.686 28.5751V28.5594C206.686 28.5594 206.559 28.5437 206.341 28.5124C206.122 28.481 205.852 28.4497 205.543 28.4184C205.217 28.3753 204.931 28.34 204.681 28.3008C204.431 28.2617 204.272 28.2421 204.213 28.2303C203.951 28.148 203.733 27.9953 203.562 27.7719C203.391 27.5486 203.304 27.3057 203.304 27.0354C203.304 26.8787 203.34 26.7181 203.411 26.5457C203.482 26.3773 203.578 26.2401 203.693 26.1344C203.796 26.0325 203.923 25.9542 204.062 25.9032C204.205 25.8523 204.435 25.8131 204.761 25.7857C205.086 25.7583 205.57 25.7387 206.222 25.7152C206.753 25.7034 207.17 25.6995 207.468 25.6917C207.766 25.6878 208 25.6917 208.175 25.6995C208.349 25.7113 208.512 25.7309 208.671 25.7622C208.992 25.8249 209.23 25.8876 209.377 25.9463C209.524 26.009 209.667 26.1109 209.802 26.2558C210.064 26.4948 210.195 26.8356 210.195 27.2783C210.195 27.3606 210.191 27.4429 210.179 27.5251C210.096 28.5986 209.703 29.7739 209 31.0549C208.385 32.1166 207.52 33.0177 206.412 33.7581C205.305 34.4946 204.165 34.9373 202.994 35.0823C202.752 35.1018 202.585 35.1175 202.494 35.1214C202.399 35.1254 202.319 35.1293 202.256 35.1293H202.085C201.97 35.1175 201.815 35.1018 201.617 35.0823L201.605 35.1058Z" fill="#42C2B2"/>
<path d="M41.3609 78.1688C40.4796 77.7653 39.9199 77.2912 39.4237 76.4215C39.2848 76.1747 39.1895 75.9122 39.0783 75.5165C38.9672 75.1209 38.8362 74.4901 38.7727 73.9652C38.7092 73.4402 38.6179 72.8447 38.5305 72.2767C38.4432 71.7047 38.4313 71.6773 38.3082 70.9799C37.9946 69.1935 38.0859 68.9075 37.7128 66.5216C37.3397 64.1358 36.6966 61.2485 35.8312 57.895C34.9658 54.5415 33.501 47.5133 26.8837 36.3793C24.7361 32.7673 23.3587 30.5577 21.8621 28.0348C21.0444 26.6558 21.1 25.7782 21.5207 24.7518C21.9415 23.7254 22.9101 23.1142 23.2158 22.981C24.6885 22.3307 25.3594 22.4835 26.9274 23.2161C27.4752 23.4707 28.543 24.5285 29.3925 25.359C30.238 26.1896 31.8417 27.8075 32.8659 29.1043C33.8901 30.4049 37.82 35.8583 39.4277 38.7652C40.3843 40.4968 43.2028 45.9031 44.3341 50.4084C45.1439 53.6405 45.914 57.9068 46.6246 64.0418C50.9872 64.1005 57.287 65.2758 57.5648 65.1348C57.8427 64.9938 57.549 65.2798 57.6204 64.9663C57.6919 64.6529 57.6204 64.3317 57.6403 63.6579C57.6601 62.9879 57.7038 61.0213 57.7196 60.1516C57.7792 56.9979 58.8431 49.8521 59.2321 47.8306C59.6251 45.8091 59.9268 44.6926 59.9545 44.5437C60.3952 42.2166 61.3717 39.4978 62.0227 38.2206C63.1779 35.9562 63.9678 35.8583 65.8415 35.3412C66.2702 35.2236 66.3536 35.3764 66.6433 35.3764C66.9371 35.3764 67.1078 35.5175 67.3142 35.5723C67.5167 35.6272 67.4373 35.6193 67.6437 35.6977C67.8541 35.776 68.2629 35.9131 68.4773 36.0698C68.6917 36.2266 68.8107 36.2971 68.9894 36.5204C70.351 38.2206 70.5256 39.7563 70.3232 42.0247C70.2716 42.581 70.1922 43.1647 70.0215 44.1128C69.8508 45.0608 69.7952 45.4408 69.4538 47.0431C68.9378 49.4721 68.1994 53.0685 67.7509 56.0733C67.3023 59.0781 67.0244 63.8851 66.9133 66.7332C66.8021 69.5813 66.687 71.2581 66.6156 73.6792C66.5917 74.5058 66.5759 74.9485 66.5759 75.5636C66.5759 76.1786 66.6195 77.162 66.6433 77.5145C66.7346 79.0267 66.8299 81.0052 66.7862 82.153C66.7426 83.3009 66.5719 83.6692 66.2742 84.4331C65.9764 85.197 65.2857 85.6985 64.8253 85.863C64.3648 86.0276 64.0234 86.0119 63.9122 86.0119C62.8246 85.9806 62.2569 85.9649 61.4233 85.3498C60.943 84.9972 60.804 84.8679 60.3594 84.1863C59.9148 83.5046 59.7084 82.5605 59.4941 81.3577C59.3829 80.7348 59.0098 78.6232 58.8827 77.7692C58.7557 76.9151 58.5771 75.7555 58.4659 75.0739C58.3548 74.3922 58.3111 73.9182 58.2516 73.452C58.192 72.9858 58.192 72.6645 58.1563 72.3707C58.1206 72.0729 58.2079 71.9828 58.0809 71.8183C57.9539 71.6538 58.0968 71.7243 57.7792 71.736C57.4616 71.7439 47.0771 70.4236 46.8826 70.4824C46.6881 70.5411 46.6087 70.5372 46.4975 70.6352C46.3864 70.7331 46.4062 70.6234 46.3546 70.8193C46.303 71.0152 46.2951 71.2424 46.2554 71.5989C46.2157 71.9554 46.1482 72.6253 46.1165 73.0876C46.0847 73.5499 46.049 74.4157 46.0093 74.8192C45.9736 75.2188 45.9577 75.3912 45.8902 75.6654C45.8227 75.9397 45.7671 76.0924 45.6679 76.304C45.0725 77.6086 44.1634 78.1962 42.7701 78.3529C42.4485 78.3882 42.2342 78.3529 41.9762 78.3216C41.7221 78.2942 41.5713 78.2863 41.3529 78.1845L41.3609 78.1688Z" fill="#F28500"/>
<path d="M76.9891 77.867C76.3421 77.5732 75.8459 76.868 75.4965 75.7476C75.2345 74.9562 75.0519 74.1727 74.9448 73.397C74.8416 72.6213 74.778 71.5635 74.7622 70.2198C74.7423 69.7222 74.7344 69.2208 74.7344 68.7232C74.7344 63.2621 75.8776 58.3102 78.1641 53.8676C80.6769 48.8569 83.4516 45.5583 86.4884 43.9716C87.7626 43.3174 89.148 42.9883 90.6525 42.9883C90.8431 42.9883 91.0257 42.9961 91.2003 43.0157C93.0859 43.0157 94.7174 43.6974 96.0949 45.0568C97.909 46.8119 99.2547 49.3623 100.128 52.704C100.755 55.0468 101.148 58.2083 101.307 62.1847C101.359 63.3718 101.382 64.3512 101.37 65.119C101.359 65.8869 101.323 66.8702 101.251 68.0768C101.2 69.0053 101.152 69.7144 101.108 70.1963C101.065 70.6781 101.013 71.0895 100.954 71.4225C100.894 71.7594 100.791 72.1669 100.652 72.6487C100.338 73.871 100.029 74.7956 99.7231 75.4146C99.4174 76.0336 99.0364 76.5272 98.5838 76.8876C98.1829 77.1971 97.7978 77.4165 97.4326 77.5458C97.0674 77.6751 96.6308 77.7377 96.1227 77.7377H96.0433C95.0151 77.7377 94.1775 77.4008 93.5305 76.7309C93.1137 76.3352 92.8001 75.8259 92.6016 75.2069C92.3992 74.588 92.2483 73.6046 92.1451 72.2609C92.0935 71.7437 92.0459 71.3872 92.0022 71.1874C91.9585 70.9916 91.9109 70.8897 91.8593 70.8897C91.8236 70.8897 91.5258 70.9289 90.9701 71.0072C90.4104 71.0856 89.7395 71.1757 88.9535 71.2775C86.9648 71.5361 85.2499 71.7868 83.8089 72.0258C82.3679 72.2687 81.5859 72.4293 81.4668 72.5155C81.447 72.5508 81.4311 72.6056 81.4152 72.684C81.3954 72.7623 81.3914 72.8368 81.3914 72.9034C81.3914 73.111 81.3438 73.4283 81.2485 73.8593C81.1532 74.2902 81.0342 74.7251 80.8952 75.1638C80.7563 75.6026 80.6332 75.9435 80.53 76.1864C79.8671 77.4635 79.0454 78.0982 78.0689 78.0982C77.7354 78.0982 77.3781 78.0198 76.9971 77.867H76.9891ZM84.1344 66.4471C85.2697 66.3257 86.5162 66.2238 87.8778 66.1376C89.2393 66.0514 90.2 66.0083 90.7557 66.0083H91.8831L91.9625 63.6068C91.9824 63.0544 91.9903 62.5138 91.9903 61.981C91.9903 59.8459 91.8236 57.8126 91.4941 55.8851C91.1448 53.6795 90.7676 52.1477 90.3667 51.2858C90.2992 51.1135 90.2357 50.992 90.1841 50.9254C90.1325 50.8588 90.0849 50.8196 90.0412 50.8079C89.9975 50.7961 89.942 50.8118 89.8705 50.8471C89.3981 51.1213 88.7828 51.7873 88.0246 52.8372C87.2665 53.8871 86.536 55.0859 85.8374 56.4297C85.0355 57.9654 84.4004 59.3993 83.9399 60.7313C83.4755 62.0672 83.0428 63.646 82.6458 65.4716L82.3838 66.6586L82.7252 66.6077C82.8284 66.5921 83.011 66.5685 83.277 66.545C83.539 66.5176 83.8248 66.4902 84.1384 66.4549L84.1344 66.4471Z" fill="#F28500"/>
<path d="M113.053 79.0068C111.707 78.713 110.723 77.9804 110.096 76.809C109.869 76.429 109.683 75.3634 109.532 73.6044C109.385 71.8454 109.214 68.8327 109.02 64.5586C108.81 60.1473 108.706 56.594 108.706 53.8869C108.706 50.9761 108.829 49.0565 109.072 48.1241C109.58 46.3494 110.505 45.1036 111.846 44.3788C112.021 44.2926 112.188 44.2143 112.342 44.1477C112.501 44.0811 112.597 44.0458 112.632 44.0458C112.684 44.0458 112.787 44.0184 112.946 43.9675C113.101 43.9165 113.267 43.8382 113.442 43.7363C115.185 42.9959 116.927 42.5297 118.666 42.3417C120.401 42.1536 121.77 42.0557 122.763 42.0557C123.898 42.0557 124.962 42.134 125.958 42.2868C128.928 42.753 131.393 43.7285 133.354 45.2211C135.319 46.7098 136.466 48.1789 136.795 49.6245C137.125 51.0701 137.292 52.124 137.292 52.7782C137.292 54.5529 136.795 56.4726 135.799 58.5411C134.124 61.0053 132.167 63.0425 129.936 64.6526C127.701 66.2628 125.541 67.5242 123.457 68.437C121.369 69.3498 119.71 69.9963 118.472 70.3763C118.456 70.3959 118.424 70.5212 118.38 70.7641C118.337 71.007 118.293 71.2812 118.249 71.5907C118.206 71.9002 118.166 72.1666 118.13 72.3899C118.043 73.6122 117.952 74.5564 117.856 75.2185C117.761 75.8806 117.638 76.3859 117.491 76.7307C117.344 77.0754 117.13 77.3849 116.852 77.6592C116.693 77.8315 116.519 78 116.328 78.1645C116.137 78.3291 115.979 78.4427 115.856 78.5132C115.471 78.7365 115.082 78.8815 114.692 78.952C114.299 79.0186 113.962 79.0538 113.684 79.0538C113.474 79.0538 113.267 79.0382 113.057 79.0029L113.053 79.0068ZM121.615 61.3344C122.612 60.8172 123.386 60.3902 123.946 60.0572C124.505 59.7203 125.081 59.3285 125.672 58.8819C126.562 58.2277 127.467 57.452 128.38 56.5588C129.297 55.6616 129.956 54.8389 130.357 54.0907C130.758 53.3424 130.96 52.7195 130.96 52.218C130.96 51.8733 130.892 51.5363 130.75 51.2112C130.384 50.4198 129.36 49.7891 127.685 49.3229C126.447 49.0291 125.331 48.8645 124.335 48.8214C123.342 48.7783 122.66 48.7548 122.294 48.7548C121.123 48.7548 120.067 48.841 119.127 49.0134L118.865 49.0643V54.1298C118.865 55.5245 118.853 56.88 118.837 58.1963C118.817 59.5166 118.801 60.4411 118.785 60.9739L118.682 62.729L119.309 62.4705C119.5 62.3843 119.809 62.2315 120.238 62.0199C120.667 61.8045 121.123 61.5773 121.612 61.3344H121.615Z" fill="#F28500"/>
<path d="M147.234 79.0069C145.889 78.7131 144.904 77.9805 144.277 76.8092C144.051 76.4291 143.864 75.3635 143.713 73.6045C143.566 71.8455 143.396 68.8328 143.201 64.5587C142.991 60.1474 142.888 56.5941 142.888 53.8871C142.888 50.9762 143.011 49.0566 143.253 48.1242C143.761 46.3495 144.686 45.1037 146.028 44.3789C146.202 44.2928 146.369 44.2144 146.524 44.1478C146.683 44.0812 146.778 44.0459 146.814 44.0459C146.865 44.0459 146.968 44.0185 147.127 43.9676C147.282 43.9167 147.449 43.8383 147.623 43.7365C149.366 42.996 151.109 42.5298 152.847 42.3418C154.582 42.1537 155.952 42.0558 156.944 42.0558C158.079 42.0558 159.143 42.1341 160.14 42.2869C163.109 42.7531 165.574 43.7286 167.535 45.2212C169.5 46.7099 170.647 48.1791 170.977 49.6247C171.306 51.0703 171.473 52.1241 171.473 52.7784C171.473 54.5531 170.977 56.4727 169.98 58.5412C168.305 61.0054 166.348 63.0426 164.117 64.6527C161.882 66.2629 159.723 67.5244 157.639 68.4372C155.551 69.35 153.891 69.9964 152.653 70.3764C152.637 70.396 152.605 70.5213 152.562 70.7642C152.518 71.0071 152.474 71.2814 152.431 71.5909C152.387 71.9004 152.347 72.1668 152.312 72.3901C152.224 73.6124 152.133 74.5565 152.038 75.2186C151.942 75.8807 151.819 76.3861 151.672 76.7308C151.526 77.0756 151.311 77.385 151.033 77.6593C150.875 77.8317 150.7 78.0001 150.509 78.1647C150.319 78.3292 150.16 78.4428 150.037 78.5133C149.652 78.7366 149.263 78.8816 148.874 78.9521C148.481 79.0187 148.143 79.054 147.866 79.054C147.655 79.054 147.449 79.0383 147.238 79.003L147.234 79.0069ZM155.797 61.3345C156.793 60.8174 157.567 60.3903 158.127 60.0573C158.687 59.7204 159.262 59.3287 159.854 58.882C160.743 58.2278 161.648 57.4521 162.561 56.5589C163.478 55.6617 164.137 54.839 164.538 54.0908C164.939 53.3425 165.141 52.7196 165.141 52.2181C165.141 51.8734 165.074 51.5365 164.931 51.2113C164.566 50.4199 163.542 49.7892 161.866 49.323C160.628 49.0292 159.512 48.8646 158.516 48.8215C157.524 48.7785 156.841 48.7549 156.476 48.7549C155.305 48.7549 154.249 48.8411 153.308 49.0135L153.046 49.0644V54.1299C153.046 55.5246 153.034 56.8801 153.018 58.1965C152.998 59.5167 152.982 60.4413 152.967 60.9741L152.863 62.7292L153.491 62.4706C153.681 62.3844 153.991 62.2316 154.419 62.0201C154.848 61.8046 155.305 61.5774 155.793 61.3345H155.797Z" fill="#F28500"/>
<path d="M192.516 78.3056C190.63 78.1176 188.919 77.3262 187.383 75.9276C186.823 75.3752 186.546 74.8072 186.546 74.2234C186.546 74.1372 186.554 74.0511 186.573 73.9649C186.661 73.2754 187.097 72.723 187.883 72.3116C188.11 72.2098 188.336 72.1549 188.566 72.1549H188.987C189.316 72.1549 189.59 72.198 189.797 72.2842C189.9 72.3195 190.055 72.3939 190.253 72.5153C190.452 72.6368 190.666 72.7661 190.892 72.9032C191.119 73.0599 191.341 73.1892 191.559 73.291C191.778 73.3929 191.94 73.4556 192.044 73.4712C192.167 73.4869 192.286 73.4948 192.409 73.4948C193.179 73.4948 193.937 73.056 194.687 72.1784C195.561 71.1638 196.291 69.7142 196.886 67.8377C197.01 67.442 197.156 66.8779 197.331 66.1453C197.506 65.4127 197.665 64.7114 197.803 64.0415C197.942 63.3677 198.014 62.9641 198.014 62.827C198.014 62.8114 198.006 62.8035 197.99 62.8035C197.97 62.8035 197.93 62.8388 197.859 62.9054C197.772 62.9916 197.657 63.1287 197.518 63.3167C195.406 65.73 192.508 66.9876 188.824 67.0894C187.447 67.0894 186.216 66.8661 185.132 66.4156C184.049 65.969 182.985 65.252 181.937 64.2726C180.452 62.8584 179.273 60.9309 178.404 58.4863C177.634 56.1788 177.253 53.7224 177.253 51.1211C177.253 50.1731 177.304 49.2015 177.408 48.2025C177.566 46.7216 177.832 45.609 178.205 44.8686C178.583 44.1281 179.154 43.5875 179.92 43.2427C180.48 42.9999 181.02 42.8823 181.544 42.8823C182.381 42.8823 183.183 43.184 183.953 43.7873C184.581 44.2888 185.033 44.9783 185.303 45.8676C185.573 46.7569 185.779 48.2064 185.918 50.2201C186.252 54.7528 186.764 57.7302 187.463 59.1601C188.145 60.6253 189.138 61.3579 190.448 61.3579C190.726 61.3579 190.964 61.3305 191.154 61.2796C191.345 61.2286 191.607 61.115 191.94 60.9426C193.667 60.1003 194.993 58.1885 195.918 55.2072C196.231 54.122 196.585 52.4923 196.978 50.3219C197.371 48.1515 197.629 46.3769 197.752 45.0018C197.788 44.4494 197.883 44.0341 198.042 43.7481C198.196 43.4661 198.45 43.2349 198.8 43.0625C198.939 42.9959 199.074 42.9372 199.205 42.8941C199.336 42.851 199.502 42.8236 199.701 42.8157C199.903 42.8079 200.177 42.804 200.527 42.804C200.717 42.7883 200.884 42.7766 201.023 42.7766C201.162 42.7766 201.277 42.7844 201.364 42.804C201.555 42.804 201.714 42.8236 201.837 42.8667C201.96 42.9097 202.099 42.9842 202.253 43.086C203.702 43.897 204.774 45.6599 205.473 48.3827C206.013 50.2945 206.283 52.5942 206.283 55.2817C206.283 55.7283 206.275 56.1866 206.259 56.6528C206.171 62.3882 205.123 67.0933 203.119 70.7602C202.559 71.7945 201.924 72.7778 201.209 73.7181C200.495 74.6583 199.82 75.3948 199.193 75.9276C197.236 77.5299 195.215 78.3291 193.119 78.3291C192.929 78.3291 192.726 78.3213 192.516 78.3017V78.3056Z" fill="#F28500"/>
<path d="M0.803077 19.2825C1.61288 20.2933 2.72437 21.0807 3.73265 21.8917C4.72506 22.6909 5.64998 23.5802 6.90834 23.9524C9.33775 24.6771 11.7354 23.4431 11.9537 20.8614C12.0688 19.5254 10.4373 18.2757 9.15514 18.7576H9.39332C9.97289 18.9887 10.5485 19.2238 11.128 19.4628C10.9057 19.1885 10.6358 18.93 10.3262 18.7537C9.58783 18.499 9.38141 18.405 9.70295 18.4794C9.82998 18.5147 9.80616 18.4912 9.63547 18.4089C9.09163 18.0798 10.3857 18.9535 9.30599 18.1856C8.88521 17.8879 8.47237 17.5901 8.04365 17.3041C6.5868 16.3208 5.17759 15.3257 3.53417 14.6715C2.40283 14.221 0.945983 14.9731 0.374358 15.9408C-0.300476 17.0808 0.0290018 18.3149 0.811016 19.2865L0.803077 19.2825Z" fill="#EE9F00"/>
<path d="M21.0004 0.544465C20.6868 0.317242 20.3454 0.176207 19.9683 0.0861014C18.3845 -0.29391 16.9673 0.579724 16.4433 2.06059C15.7923 3.89405 16.4909 6.02916 16.8403 7.86261C17.2015 9.75092 17.6302 12.2504 19.5356 13.1788C20.4367 13.6176 21.7944 13.6568 22.5049 12.7988C24.0372 10.9458 23.5489 8.70491 23.0091 6.51495C22.5645 4.70891 22.2945 2.82061 21.5959 1.18696L19.6111 4.59922L19.8889 4.58747C22.1913 4.47386 22.7232 1.80203 21.0004 0.540547V0.544465Z" fill="#42C2B2"/>
<path d="M33.2417 15.7921C35.9132 14.5463 38.2593 11.9215 39.3866 9.26144C40.2599 7.20076 37.2629 4.97162 35.4686 6.28795C33.1266 8.00387 31.1219 10.7384 30.1692 13.4611C29.5182 15.3181 31.7292 16.4973 33.2456 15.7921H33.2417Z" fill="#1AB3D3"/>
<path d="M81.5815 30.8514C81.2481 30.726 80.9186 30.6045 80.5812 30.5027C79.8746 30.2872 79.2593 30.7613 79.0132 31.3802L78.906 31.6545L79.8309 30.7417L79.303 30.8866C77.9334 31.2666 77.2189 32.7592 77.7667 34.0442C78.3344 35.3723 79.8627 35.8111 81.129 35.1647C82.8438 34.2871 84.4317 33.0883 85.8806 31.8151C87.0993 30.7417 87.0715 28.5478 85.8806 27.4704C84.6421 26.3461 82.7049 26.2521 81.4783 27.4704C80.1167 28.822 78.8623 30.3264 77.8858 31.964C79.1283 31.8073 80.3708 31.6466 81.6093 31.4899L81.1171 31.0786L81.5061 32.0031L81.522 31.7172C81.3116 32.0776 81.1012 32.4419 80.8908 32.8023C81.1965 32.6691 81.4942 32.5242 81.7879 32.3675C82.4826 32.0031 82.2127 31.0903 81.5855 30.8514H81.5815Z" fill="#42C2B2"/>
<path d="M70.1625 30.3184C72.5839 30.0324 73.5128 27.9757 73.751 25.8014C73.8621 24.7867 73.7589 23.7603 73.2667 22.8436C72.7229 22.0679 72.5839 21.9073 72.842 22.3695L72.3418 21.731C71.7225 21.1198 70.8294 20.7555 69.9521 20.8182C70.6309 21.0963 71.3137 21.3745 71.9925 21.6526C71.8416 21.5116 71.6828 21.3823 71.5161 21.2609C70.5713 20.5283 69.3963 20.2109 68.2848 20.8495C67.217 21.4646 66.828 22.6673 67.0582 23.8191C67.1059 24.0189 67.1416 24.2226 67.1614 24.4263C67.4076 23.5017 67.6576 22.5772 67.9038 21.6526C67.4949 22.0483 67.1575 22.5733 67.0026 23.1178C66.8399 23.9993 66.8161 24.2265 66.9352 23.8034C67.0582 23.3568 67.0344 23.6075 66.8597 24.5517C66.8955 25.3509 67.217 26.0404 67.4155 26.7965C67.4989 27.1138 67.3877 26.5027 67.4472 27.055C67.4909 27.4468 67.5624 27.9678 67.6894 28.3674C67.9871 29.3273 69.0152 30.4477 70.1545 30.3145L70.1625 30.3184Z" fill="#EE9F00"/>
<path d="M214 42.4668V43.2347H212.5V47.0974H211.571V43.2347H210.07V42.4668H214ZM219.069 47.0974L218.899 44.3747C218.883 44.0182 218.883 43.5755 218.863 43.0819H218.811C218.692 43.4893 218.553 44.0339 218.415 44.4609L217.569 47.0308H216.604L215.759 44.3943C215.672 44.0378 215.537 43.4932 215.433 43.0819H215.382C215.382 43.5089 215.366 43.9516 215.346 44.3747L215.175 47.0974H214.278L214.624 42.4668H216.021L216.831 44.7312C216.934 45.0877 217.021 45.4285 217.14 45.9065H217.156C217.275 45.4795 217.378 45.0916 217.482 44.7508L218.291 42.4707H219.637L219.998 47.1014H219.066L219.069 47.0974Z" fill="#F28500"/>
<path d="M98.3097 35.1841C96.9164 35 95.654 34.4006 94.5148 33.3898C94.0662 32.9981 93.8399 32.622 93.8399 32.2616C93.8399 32.1284 93.8717 31.9952 93.9352 31.858C93.9987 31.7131 94.1059 31.576 94.2567 31.4467C94.4076 31.3174 94.5624 31.2273 94.7212 31.1764C94.8998 31.1372 95.0705 31.1137 95.2372 31.1137C95.3643 31.1137 95.4873 31.1254 95.6143 31.145C95.9081 31.1881 96.1423 31.2861 96.3209 31.4389C96.4241 31.5329 96.6186 31.6504 96.9005 31.7954C97.1823 31.9403 97.4602 32.0657 97.7341 32.1675C98.0795 32.2929 98.4367 32.3517 98.8019 32.3517C99.1671 32.3517 99.5165 32.2968 99.8856 32.1832C100.64 31.9677 101.307 31.6191 101.886 31.1372C102.466 30.6553 102.799 30.2557 102.883 29.9384C102.966 29.6211 103.01 29.4134 103.01 29.3194C103.01 28.9081 102.776 28.5359 102.303 28.2029C101.72 27.7994 100.644 27.5643 99.0877 27.4899C97.8413 27.4585 96.6187 27.2587 95.4079 26.8866C94.2012 26.5144 93.177 25.915 92.3434 25.0844C91.5058 24.2539 91.0255 23.1374 90.8984 21.7309V21.4371C90.8984 20.1756 91.2716 19.0513 92.0139 18.064C92.8277 16.9906 93.8955 16.117 95.2134 15.4471C96.5313 14.7771 97.6388 14.3971 98.536 14.3109C99.4331 14.2247 100.04 14.1777 100.358 14.1777C101.446 14.1777 102.454 14.3658 103.387 14.734C104.085 15.0318 104.744 15.4706 105.356 16.0504C105.967 16.6302 106.404 17.2178 106.666 17.8172C106.717 17.9622 106.781 18.2051 106.86 18.5459C106.94 18.8867 107.007 19.2315 107.063 19.5762C107.118 19.921 107.15 20.1874 107.15 20.3754C107.138 21.4058 106.713 22.0169 105.864 22.2011C105.749 22.2206 105.634 22.2324 105.519 22.2324C105.308 22.2324 105.106 22.1971 104.907 22.1227C104.606 22.0091 104.363 21.8289 104.185 21.5821C104.141 21.5194 104.109 21.4528 104.082 21.3823C104.054 21.3118 104.034 21.2138 104.018 21.0885C104.002 20.9631 103.99 20.7946 103.978 20.5792C103.851 19.5371 103.494 18.8789 102.907 18.6047C102.315 18.3304 101.843 18.1933 101.485 18.1933C100.973 18.1933 100.445 18.3579 99.9015 18.6909C99.2227 19.1531 98.7543 19.6389 98.4963 20.1443C98.2422 20.6497 98.1112 21.0649 98.1112 21.3823C98.1112 21.5782 98.147 21.7662 98.2224 21.9386C98.3375 22.1854 98.6233 22.393 99.0758 22.5654C99.5323 22.7339 100.235 22.9023 101.184 23.0669C102.208 23.2432 103.002 23.4116 103.569 23.5683C104.133 23.7289 104.725 23.964 105.34 24.2735C106.626 24.9121 107.44 25.6055 107.777 26.3498C108.115 27.0942 108.289 27.7484 108.289 28.3165C108.289 28.7396 108.222 29.1666 108.087 29.6015C107.781 30.6436 107.178 31.6308 106.269 32.5593C105.296 33.5191 104.161 34.2047 102.859 34.62C101.557 35.0352 100.37 35.239 99.3061 35.239C98.9845 35.239 98.6551 35.2233 98.3176 35.192L98.3097 35.1841Z" fill="#42C2B2"/>
<path d="M117.792 35.3253C115.605 35.1804 113.704 34.2793 112.084 32.6143C110.881 31.3646 110.107 29.9268 109.762 28.2932C109.667 27.7995 109.615 27.2863 109.603 26.7614C109.591 26.2364 109.587 25.8721 109.587 25.6762C109.587 25.0885 109.607 24.5557 109.651 24.0817C110.091 20.1406 111.671 17.312 114.39 15.5961C115.97 14.554 117.57 14.033 119.19 14.033C119.305 14.033 119.424 14.0369 119.551 14.0486C120.774 14.1191 121.833 14.4521 122.735 15.0398C123.632 15.6274 124.239 16.3013 124.553 17.0613C124.866 17.8213 125.021 18.5187 125.021 19.1572C125.021 19.6117 124.965 20.0857 124.85 20.5833C124.326 22.4089 123.31 23.8662 121.806 24.9475C120.301 26.0327 118.602 26.6438 116.709 26.7888L116.145 26.8358L116.177 27.0826C116.343 28.4773 116.725 29.539 117.32 30.2716C117.614 30.6633 117.9 30.9532 118.181 31.1374C118.463 31.3215 118.805 31.4586 119.202 31.5409C119.412 31.5918 119.599 31.6192 119.765 31.6192C119.861 31.6192 119.944 31.6153 120.015 31.6036C120.234 31.5722 120.519 31.4743 120.861 31.3097C121.091 31.1961 121.278 31.0904 121.425 30.9846C121.571 30.8827 121.726 30.7378 121.893 30.5497C122.27 30.1697 122.556 29.8798 122.754 29.6839C122.953 29.488 123.108 29.3509 123.215 29.2726C123.326 29.1942 123.445 29.1355 123.568 29.0963C123.779 29.0258 123.985 28.9866 124.195 28.9866C124.374 28.9866 124.545 29.014 124.711 29.0649C125.077 29.1785 125.366 29.3901 125.573 29.6996C125.708 29.9386 125.775 30.1893 125.775 30.4596C125.775 30.7299 125.712 30.9846 125.589 31.2627C125.41 31.5918 125.033 32.0306 124.457 32.5712C123.882 33.1119 123.27 33.6016 122.623 34.0364C121.722 34.6241 120.781 35.0276 119.801 35.2431C119.571 35.2861 119.333 35.3097 119.086 35.3214C118.84 35.3332 118.654 35.3371 118.531 35.3371C118.289 35.3371 118.038 35.3332 117.776 35.3214L117.792 35.3253ZM117.685 23.6978C118.614 23.4079 119.305 23.0984 119.753 22.7693C120.591 22.1111 121.107 21.5117 121.305 20.975C121.504 20.4383 121.603 20.0152 121.603 19.7057C121.603 19.4667 121.556 19.2473 121.46 19.0397C121.274 18.6283 120.944 18.4207 120.472 18.4207L120.301 18.4364C119.737 18.4873 119.051 18.93 118.245 19.7684C117.292 20.7478 116.677 21.9113 116.395 23.2512C116.332 23.5097 116.296 23.6782 116.288 23.7526C116.276 23.831 116.272 23.878 116.272 23.9015C116.272 23.9524 116.288 23.9838 116.32 23.9955C116.339 24.0073 116.371 24.0112 116.415 24.0112C116.459 24.0112 116.502 24.0073 116.558 23.9955C116.641 23.9838 116.792 23.9524 117.006 23.8937C117.221 23.8388 117.447 23.7722 117.689 23.7017L117.685 23.6978Z" fill="#42C2B2"/>
<path d="M129.558 35.819C129.193 35.7054 128.887 35.5213 128.649 35.2627C128.502 35.1177 128.391 34.9806 128.319 34.8435C128.248 34.7103 128.192 34.5418 128.16 34.342C128.129 34.1422 128.097 33.8602 128.065 33.4998C128.053 33.2608 128.037 33.0022 128.01 32.7241C127.982 32.4459 127.962 32.2069 127.938 32.011C127.926 31.8152 127.91 31.5684 127.883 31.2745C127.859 30.9807 127.835 30.7026 127.811 30.4479C127.799 30.1894 127.783 29.9465 127.763 29.7114C127.744 29.4763 127.728 29.3118 127.716 29.2099C127.704 29.1081 127.688 28.9279 127.668 28.6771C127.648 28.4264 127.625 28.16 127.605 27.8779C127.585 27.588 127.565 27.2903 127.541 26.9808C127.521 26.6713 127.501 26.4206 127.494 26.2208C127.474 26.0249 127.454 25.782 127.43 25.4921C127.41 25.2022 127.386 24.9358 127.367 24.689C127.355 24.5871 127.347 24.4657 127.335 24.3325C127.315 24.0661 127.291 23.7723 127.263 23.4588C127.236 23.1454 127.216 22.8477 127.192 22.5695C127.077 21.0848 127.017 19.9447 127.017 19.1494C127.017 18.3542 127.081 17.696 127.204 17.1985C127.422 16.3092 127.898 15.7019 128.633 15.3728C128.653 15.3611 128.68 15.3533 128.712 15.3415C128.796 15.3023 128.879 15.2631 128.954 15.224C129.034 15.1887 129.089 15.1613 129.121 15.1378C129.288 15.0555 129.49 14.985 129.724 14.9301C129.959 14.8753 130.173 14.844 130.36 14.844C131.281 14.844 132.277 15.3689 133.357 16.4228C133.639 16.7127 133.948 17.0457 134.29 17.4218C134.631 17.7979 134.925 18.1465 135.175 18.4678C135.195 18.4991 135.242 18.554 135.318 18.6362C135.369 18.7068 135.425 18.7812 135.488 18.8517C136.219 19.7606 137.108 20.9359 138.156 22.3815C138.426 22.7615 138.696 23.1337 138.954 23.498C139.212 23.8624 139.414 24.1327 139.549 24.3168C139.676 24.4813 139.807 24.6616 139.95 24.8574C140.093 25.0533 140.204 25.2139 140.288 25.3393C140.371 25.4647 140.45 25.5665 140.526 25.6488C140.597 25.7311 140.641 25.7742 140.653 25.7742C140.673 25.7742 140.685 25.7272 140.685 25.6331C140.685 25.5391 140.681 25.4216 140.669 25.2766C140.637 24.8849 140.605 24.2698 140.565 23.4275C140.526 22.5852 140.498 21.7077 140.47 20.7949C140.442 19.882 140.431 19.1573 140.431 18.6206V18.3267C140.431 17.0653 140.494 16.1407 140.621 15.5413C140.756 14.9106 141.014 14.4365 141.391 14.1153C141.61 13.9194 141.828 13.7744 142.042 13.6804C142.257 13.5864 142.515 13.5316 142.82 13.512H142.991C143.106 13.512 143.205 13.5159 143.289 13.5276C143.404 13.5394 143.535 13.5746 143.682 13.6373C144.495 13.9664 145.011 14.6442 145.218 15.6667C145.281 16.1015 145.313 16.8028 145.313 17.7704V18.5618C145.301 19.9565 145.246 21.3747 145.142 22.8203C145.123 23.0788 145.103 23.3413 145.087 23.6077C145.071 23.878 145.059 24.0935 145.047 24.258C145.035 24.4108 145.023 24.6224 145.007 24.8927C144.992 25.1591 144.976 25.4255 144.952 25.6841C144.869 26.8515 144.785 28.779 144.702 31.4743C144.69 31.9484 144.682 32.3166 144.67 32.5752C144.658 32.8338 144.646 33.0257 144.622 33.1472C144.603 33.2725 144.575 33.3587 144.543 33.4096C144.249 34.009 143.717 34.3695 142.943 34.4948C142.661 34.5379 142.384 34.5575 142.114 34.5575C141.844 34.5575 141.606 34.5379 141.407 34.4948C140.625 34.2794 140.01 33.8171 139.573 33.1158C139.51 33.0218 139.43 32.9082 139.331 32.775C139.232 32.6418 139.129 32.5125 139.025 32.3871C138.557 31.8504 138.005 31.204 137.37 30.444C136.739 29.684 136.143 28.9553 135.588 28.254C134.75 27.1924 134.051 26.307 133.488 25.6057C133.194 25.257 132.972 24.9828 132.813 24.7948C132.654 24.6028 132.547 24.4657 132.483 24.3756C132.42 24.2894 132.372 24.2267 132.34 24.1954C132.321 24.164 132.301 24.1444 132.285 24.1327C132.269 24.1209 132.257 24.117 132.245 24.117L132.229 24.1327C132.209 24.164 132.194 24.4892 132.182 25.1082C132.17 25.7272 132.162 26.4911 132.15 27.4C132.13 29.8563 132.106 31.631 132.086 32.7162C132.067 33.8053 132.035 34.393 131.991 34.4752C131.773 35.1256 131.332 35.5643 130.673 35.7916C130.495 35.8425 130.344 35.8699 130.221 35.8699H129.971C129.804 35.8699 129.661 35.8543 129.546 35.8229L129.558 35.819Z" fill="#42C2B2"/>
<path d="M150.264 35.2157C149.355 34.9571 148.736 34.3969 148.414 33.5272C148.259 33.1785 148.12 31.9484 148.005 29.8407C147.89 28.0542 147.811 26.5498 147.771 25.3197C147.727 24.0896 147.708 22.7537 147.708 21.312C147.708 19.4863 147.747 18.2131 147.835 17.4962C147.922 16.7793 148.093 16.1838 148.355 15.7097C148.74 14.9967 149.18 14.5501 149.673 14.3621C150.165 14.174 150.562 14.0839 150.867 14.0839C151.233 14.0839 151.61 14.1701 151.995 14.3464L152.277 14.5031L152.888 14.3777C153.297 14.2955 153.936 14.2445 154.801 14.221C155.155 14.2093 155.448 14.2054 155.679 14.2054H155.992C156.262 14.2171 156.564 14.2524 156.885 14.3151C157.378 14.3973 157.886 14.5227 158.414 14.6951C158.942 14.8635 159.402 15.0516 159.787 15.2592C161.502 16.1877 162.792 17.4766 163.661 19.1298C164.289 20.3796 164.602 21.7351 164.602 23.2003V23.4784C164.559 25.0376 164.174 26.5498 163.443 28.015C162.502 29.8407 161.081 31.396 159.176 32.6731C158.695 32.9826 158.136 33.2921 157.497 33.6016C156.858 33.9111 156.282 34.1501 155.77 34.3146C155.301 34.4674 154.714 34.6241 154.015 34.7769C153.313 34.9336 152.749 35.0355 152.32 35.0864C152.205 35.0981 152.086 35.1138 151.967 35.1412C151.848 35.1687 151.757 35.1922 151.693 35.2117C151.566 35.2627 151.391 35.2901 151.161 35.2901H151.054C150.772 35.2901 150.51 35.2627 150.268 35.2117L150.264 35.2157ZM155.329 29.5664C156.187 28.8142 156.969 27.9171 157.675 26.8789C158.382 25.8408 158.902 24.8378 159.235 23.8663C159.35 23.4863 159.418 23.1415 159.43 22.8359C159.446 22.5304 159.454 22.3345 159.454 22.2404C159.454 21.8565 159.422 21.5274 159.358 21.2493C159.14 20.3835 158.648 19.7175 157.882 19.2513C156.921 18.6754 155.825 18.3855 154.603 18.3855H153.944V21.4648C153.944 22.6009 153.932 23.5724 153.912 24.3834C153.892 25.1943 153.857 26.0484 153.801 26.9455C153.761 27.6272 153.718 28.2658 153.686 28.8652C153.65 29.4646 153.626 29.8759 153.614 30.1031L153.567 30.8632L154.21 30.4126C154.396 30.2873 154.595 30.1462 154.805 29.9856C155.016 29.825 155.186 29.684 155.325 29.5586L155.329 29.5664Z" fill="#42C2B2"/>
<path d="M168.742 35.1528C167.841 34.8747 167.274 34.2949 167.031 33.4173C167.012 33.3155 166.992 33.1352 166.976 32.8767C166.96 32.6181 166.952 32.3282 166.952 32.0109C166.952 31.721 166.948 31.4624 166.936 31.2352C166.924 31.008 166.92 30.8787 166.92 30.8473C166.9 30.8356 166.869 30.4595 166.825 29.7112C166.781 28.963 166.714 27.7015 166.623 25.9268L166.575 25.1981C166.535 24.4655 166.492 23.729 166.448 22.9846C166.396 22.0993 166.369 21.1277 166.369 20.0738V19.1454C166.38 18.5264 166.388 18.0523 166.4 17.7272C166.412 17.402 166.424 17.1552 166.448 16.9907C166.468 16.8261 166.5 16.6772 166.543 16.5401C167.012 14.9417 167.988 14.1386 169.461 14.1386H169.572C169.79 14.1504 169.969 14.17 170.104 14.2013C170.239 14.2326 170.39 14.2875 170.556 14.3698C171.426 14.7811 171.99 15.4745 172.252 16.4461C172.398 16.9711 172.47 17.9152 172.47 19.2786C172.47 20.4225 172.418 21.8681 172.311 23.6154C172.291 24.1012 172.259 24.7123 172.224 25.4488C172.188 26.1853 172.152 26.8749 172.121 27.5173C172.089 28.1481 172.057 28.7396 172.025 29.292C171.993 29.8444 171.974 30.2284 171.962 30.4438C171.942 30.6515 171.926 30.91 171.914 31.2274C171.902 31.5447 171.898 31.8346 171.898 32.101C171.898 32.7709 171.851 33.2724 171.747 33.6014C171.648 33.9305 171.462 34.2322 171.192 34.4986C170.68 34.9844 170.088 35.2273 169.421 35.2273C169.203 35.2273 168.973 35.1998 168.73 35.1489L168.742 35.1528Z" fill="#42C2B2"/>
<path d="M177.181 35.819C176.816 35.7054 176.51 35.5213 176.272 35.2627C176.125 35.1177 176.014 34.9806 175.943 34.8435C175.871 34.7103 175.816 34.5418 175.784 34.342C175.752 34.1422 175.72 33.8602 175.689 33.4998C175.677 33.2608 175.661 33.0022 175.633 32.7241C175.605 32.4459 175.585 32.2069 175.562 32.011C175.55 31.8152 175.534 31.5684 175.506 31.2745C175.482 30.9807 175.458 30.7026 175.434 30.4479C175.423 30.1894 175.407 29.9465 175.387 29.7114C175.367 29.4763 175.351 29.3118 175.339 29.2099C175.327 29.1081 175.311 28.9279 175.292 28.6771C175.272 28.4264 175.248 28.16 175.228 27.8779C175.208 27.588 175.188 27.2903 175.165 26.9808C175.145 26.6713 175.125 26.4206 175.117 26.2208C175.097 26.0249 175.077 25.782 175.053 25.4921C175.034 25.2022 175.01 24.9358 174.99 24.689C174.978 24.5871 174.97 24.4657 174.958 24.3325C174.938 24.0661 174.914 23.7723 174.887 23.4588C174.859 23.1454 174.839 22.8477 174.815 22.5695C174.7 21.0848 174.641 19.9447 174.641 19.1494C174.641 18.3542 174.704 17.696 174.827 17.1985C175.045 16.3092 175.522 15.7019 176.256 15.3728C176.276 15.3611 176.304 15.3533 176.336 15.3415C176.419 15.3023 176.502 15.2631 176.578 15.224C176.657 15.1887 176.713 15.1613 176.744 15.1378C176.911 15.0555 177.114 14.985 177.348 14.9301C177.582 14.8753 177.796 14.844 177.983 14.844C178.904 14.844 179.9 15.3689 180.98 16.4228C181.262 16.7127 181.572 17.0457 181.913 17.4218C182.254 17.7979 182.548 18.1465 182.798 18.4678C182.818 18.4991 182.866 18.554 182.941 18.6362C182.993 18.7068 183.048 18.7812 183.112 18.8517C183.842 19.7606 184.731 20.9359 185.779 22.3815C186.049 22.7615 186.319 23.1337 186.577 23.498C186.835 23.8624 187.038 24.1327 187.173 24.3168C187.3 24.4813 187.431 24.6616 187.574 24.8574C187.716 25.0533 187.828 25.2139 187.911 25.3393C187.994 25.4647 188.074 25.5665 188.149 25.6488C188.221 25.7311 188.264 25.7742 188.276 25.7742C188.296 25.7742 188.308 25.7272 188.308 25.6331C188.308 25.5391 188.304 25.4216 188.292 25.2766C188.26 24.8849 188.229 24.2698 188.189 23.4275C188.149 22.5852 188.121 21.7077 188.094 20.7949C188.066 19.882 188.054 19.1573 188.054 18.6206V18.3267C188.054 17.0653 188.117 16.1407 188.244 15.5413C188.379 14.9106 188.637 14.4365 189.015 14.1153C189.233 13.9194 189.451 13.7744 189.666 13.6804C189.88 13.5864 190.138 13.5316 190.444 13.512H190.614C190.729 13.512 190.829 13.5159 190.912 13.5276C191.027 13.5394 191.158 13.5746 191.305 13.6373C192.119 13.9664 192.635 14.6442 192.841 15.6667C192.905 16.1015 192.937 16.8028 192.937 17.7704V18.5618C192.925 19.9565 192.869 21.3747 192.766 22.8203C192.746 23.0788 192.726 23.3413 192.71 23.6077C192.694 23.878 192.682 24.0935 192.671 24.258C192.659 24.4108 192.647 24.6224 192.631 24.8927C192.615 25.1591 192.599 25.4255 192.575 25.6841C192.492 26.8515 192.409 28.779 192.325 31.4743C192.313 31.9484 192.305 32.3166 192.293 32.5752C192.282 32.8338 192.27 33.0257 192.246 33.1472C192.226 33.2725 192.198 33.3587 192.166 33.4096C191.873 34.009 191.341 34.3695 190.567 34.4948C190.285 34.5379 190.007 34.5575 189.737 34.5575C189.467 34.5575 189.229 34.5379 189.03 34.4948C188.248 34.2794 187.633 33.8171 187.196 33.1158C187.133 33.0218 187.054 32.9082 186.954 32.775C186.855 32.6418 186.752 32.5125 186.649 32.3871C186.18 31.8504 185.628 31.204 184.993 30.444C184.362 29.684 183.767 28.9553 183.211 28.254C182.373 27.1924 181.675 26.307 181.111 25.6057C180.817 25.257 180.595 24.9828 180.436 24.7948C180.277 24.6028 180.17 24.4657 180.107 24.3756C180.043 24.2894 179.996 24.2267 179.964 24.1954C179.944 24.164 179.924 24.1444 179.908 24.1327C179.892 24.1209 179.88 24.117 179.869 24.117L179.853 24.1327C179.833 24.164 179.817 24.4892 179.805 25.1082C179.793 25.7272 179.785 26.4911 179.773 27.4C179.753 29.8563 179.73 31.631 179.71 32.7162C179.69 33.8053 179.658 34.393 179.614 34.4752C179.396 35.1256 178.956 35.5643 178.297 35.7916C178.118 35.8425 177.967 35.8699 177.844 35.8699H177.594C177.427 35.8699 177.284 35.8543 177.169 35.8229L177.181 35.819Z" fill="#42C2B2"/>
<path d="M201.601 35.1056C199.791 34.8392 198.227 33.9539 196.909 32.4573C196.083 31.4466 195.42 30.2713 194.916 28.9275C194.539 27.8228 194.353 26.62 194.353 25.3194C194.353 25.0804 194.357 24.8375 194.368 24.5907C194.464 23.0001 194.817 21.4566 195.436 19.9601C196.659 17.206 198.457 15.3999 200.831 14.542C201.228 14.4088 201.577 14.3187 201.875 14.2795C202.173 14.2403 202.558 14.2168 203.026 14.2168C205.067 14.2168 206.674 14.9298 207.857 16.3519C208.631 17.3235 209.016 18.2167 209.016 19.0316C209.016 20.199 208.552 20.8063 207.619 20.8572H207.555C207.325 20.8572 207.127 20.8023 206.96 20.6887C206.773 20.5634 206.579 20.344 206.38 20.0227C205.984 19.3842 205.583 18.9532 205.174 18.7378C204.809 18.5615 204.408 18.4792 203.975 18.4831C203.542 18.487 203.173 18.5889 202.867 18.7848C201.728 19.5605 200.958 21.0021 200.561 23.1177C200.509 23.4076 200.474 23.6975 200.454 23.9835C200.434 24.2734 200.422 24.6691 200.422 25.1744V25.4056C200.422 26.1813 200.47 26.8002 200.565 27.2625C200.668 27.7797 200.875 28.3203 201.176 28.8884C201.815 30.1263 202.558 30.8511 203.403 31.0548C203.55 31.1057 203.681 31.1332 203.796 31.1332C203.911 31.1332 204.05 31.1057 204.221 31.0548C204.336 31.0352 204.455 31.0078 204.582 30.9686C204.709 30.9334 204.801 30.8981 204.864 30.8668C205.011 30.8041 205.202 30.667 205.436 30.4554C205.67 30.2439 205.872 30.0245 206.039 29.7972C206.111 29.6836 206.206 29.5348 206.313 29.3467C206.42 29.1587 206.511 28.9941 206.579 28.8531C206.646 28.7081 206.682 28.6141 206.682 28.5749V28.5593C206.682 28.5593 206.555 28.5436 206.337 28.5123C206.118 28.4809 205.849 28.4496 205.539 28.4182C205.213 28.3751 204.928 28.3399 204.678 28.3007C204.427 28.2615 204.269 28.2419 204.209 28.2302C203.947 28.1479 203.729 27.9951 203.558 27.7718C203.387 27.5485 203.3 27.3056 203.3 27.0353C203.3 26.8786 203.336 26.718 203.407 26.5456C203.479 26.3771 203.574 26.24 203.689 26.1343C203.792 26.0324 203.919 25.954 204.058 25.9031C204.201 25.8522 204.431 25.813 204.757 25.7856C205.082 25.7582 205.567 25.7386 206.218 25.7151C206.75 25.7033 207.166 25.6994 207.464 25.6916C207.762 25.6876 207.996 25.6916 208.171 25.6994C208.345 25.7111 208.508 25.7307 208.667 25.7621C208.989 25.8248 209.227 25.8874 209.374 25.9462C209.52 26.0089 209.663 26.1107 209.798 26.2557C210.06 26.4947 210.191 26.8355 210.191 27.2782C210.191 27.3605 210.187 27.4427 210.175 27.525C210.092 28.5984 209.699 29.7737 208.996 31.0548C208.381 32.1165 207.516 33.0175 206.408 33.758C205.301 34.4945 204.161 34.9372 202.99 35.0821C202.748 35.1017 202.582 35.1174 202.49 35.1213C202.395 35.1252 202.316 35.1291 202.252 35.1291H202.081C201.966 35.1174 201.811 35.1017 201.613 35.0821L201.601 35.1056Z" fill="#42C2B2"/>
<path d="M41.359 78.1683C40.4777 77.7648 39.918 77.2907 39.4218 76.421C39.2829 76.1742 39.1876 75.9117 39.0765 75.5161C38.9653 75.1204 38.8343 74.4896 38.7708 73.9647C38.7073 73.4397 38.616 72.8442 38.5286 72.2762C38.4413 71.7042 38.4294 71.6768 38.3063 70.9794C37.9927 69.193 38.084 68.907 37.7109 66.5212C37.3378 64.1353 36.6947 61.248 35.8293 57.8945C34.9639 54.541 33.4991 47.5128 26.8818 36.3788C24.7342 32.7668 23.3568 30.5572 21.8602 28.0343C21.0425 26.6553 21.0981 25.7777 21.5188 24.7513C21.9396 23.7249 22.9082 23.1137 23.2139 22.9805C24.6866 22.3302 25.3575 22.483 26.9255 23.2156C27.4733 23.4702 28.5411 24.528 29.3906 25.3585C30.2361 26.1891 31.8398 27.8071 32.864 29.1038C33.8882 30.4045 37.8181 35.8578 39.4258 38.7647C40.3825 40.4963 43.2009 45.9026 44.3322 50.4079C45.142 53.64 45.9121 57.9063 46.6227 64.0413C50.9853 64.1001 57.2851 65.2753 57.5629 65.1343C57.8408 64.9933 57.5471 65.2793 57.6185 64.9659C57.69 64.6524 57.6185 64.3312 57.6384 63.6574C57.6582 62.9874 57.7019 61.0208 57.7178 60.1511C57.7773 56.9974 58.8412 49.8516 59.2302 47.8301C59.6232 45.8086 59.9249 44.6921 59.9526 44.5432C60.3933 42.2161 61.3698 39.4973 62.0208 38.2201C63.176 35.9557 63.9659 35.8578 65.8396 35.3407C66.2683 35.2231 66.3517 35.3759 66.6414 35.3759C66.9352 35.3759 67.1059 35.517 67.3123 35.5718C67.5148 35.6267 67.4354 35.6188 67.6418 35.6972C67.8522 35.7755 68.2611 35.9127 68.4754 36.0694C68.6898 36.2261 68.8089 36.2966 68.9875 36.5199C70.3491 38.2201 70.5237 39.7559 70.3213 42.0242C70.2697 42.5805 70.1903 43.1642 70.0196 44.1123C69.8489 45.0603 69.7933 45.4403 69.4519 47.0427C68.9359 49.4716 68.1975 53.068 67.749 56.0728C67.3004 59.0776 67.0225 63.8846 66.9114 66.7327C66.8002 69.5808 66.6851 71.2576 66.6137 73.6787C66.5898 74.5053 66.574 74.948 66.574 75.5631C66.574 76.1781 66.6176 77.1615 66.6414 77.5141C66.7327 79.0263 66.828 81.0047 66.7844 82.1525C66.7407 83.3004 66.57 83.6687 66.2723 84.4326C65.9746 85.1965 65.2838 85.698 64.8234 85.8625C64.3629 86.0271 64.0215 86.0114 63.9104 86.0114C62.8227 85.9801 62.255 85.9644 61.4214 85.3493C60.9411 84.9967 60.8021 84.8675 60.3576 84.1858C59.913 83.5041 59.7065 82.56 59.4922 81.3573C59.381 80.7344 59.0079 78.6227 58.8809 77.7687C58.7538 76.9146 58.5752 75.755 58.464 75.0734C58.3529 74.3917 58.3092 73.9177 58.2497 73.4515C58.1901 72.9853 58.1901 72.664 58.1544 72.3702C58.1187 72.0725 58.206 71.9823 58.079 71.8178C57.952 71.6533 58.0949 71.7238 57.7773 71.7355C57.4597 71.7434 47.0752 70.4231 46.8807 70.4819C46.6862 70.5407 46.6068 70.5367 46.4957 70.6347C46.3845 70.7326 46.4044 70.6229 46.3528 70.8188C46.3011 71.0147 46.2932 71.2419 46.2535 71.5984C46.2138 71.9549 46.1463 72.6248 46.1146 73.0871C46.0828 73.5494 46.0471 74.4152 46.0074 74.8187C45.9717 75.2183 45.9558 75.3907 45.8883 75.6649C45.8208 75.9392 45.7652 76.0919 45.666 76.3035C45.0706 77.6081 44.1615 78.1957 42.7682 78.3524C42.4467 78.3877 42.2323 78.3524 41.9743 78.3211C41.7202 78.2937 41.5694 78.2858 41.351 78.184L41.359 78.1683Z" fill="#FE8801"/>
<path d="M76.9853 77.8665C76.3382 77.5727 75.842 76.8675 75.4927 75.7471C75.2307 74.9557 75.0481 74.1722 74.9409 73.3965C74.8377 72.6208 74.7742 71.563 74.7583 70.2193C74.7385 69.7218 74.7305 69.2203 74.7305 68.7228C74.7305 63.2616 75.8738 58.3097 78.1603 53.8671C80.673 48.8564 83.4478 45.5578 86.4846 43.9711C87.7588 43.3169 89.1442 42.9878 90.6487 42.9878C90.8392 42.9878 91.0218 42.9956 91.1965 43.0152C93.0821 43.0152 94.7136 43.6969 96.091 45.0563C97.9051 46.8114 99.2508 49.3618 100.124 52.7035C100.751 55.0463 101.144 58.2078 101.303 62.1842C101.355 63.3713 101.379 64.3507 101.367 65.1185C101.355 65.8864 101.319 66.8697 101.248 68.0764C101.196 69.0048 101.148 69.7139 101.105 70.1958C101.061 70.6777 101.009 71.089 100.95 71.422C100.89 71.7589 100.787 72.1664 100.648 72.6482C100.335 73.8705 100.025 74.7951 99.7193 75.4141C99.4136 76.0331 99.0325 76.5267 98.58 76.8871C98.179 77.1966 97.794 77.416 97.4288 77.5453C97.0636 77.6746 96.6269 77.7372 96.1188 77.7372H96.0394C95.0113 77.7372 94.1737 77.4003 93.5267 76.7304C93.1098 76.3347 92.7962 75.8254 92.5978 75.2065C92.3953 74.5875 92.2445 73.6041 92.1413 72.2604C92.0897 71.7433 92.042 71.3868 91.9984 71.187C91.9547 70.9911 91.9071 70.8892 91.8554 70.8892C91.8197 70.8892 91.522 70.9284 90.9663 71.0067C90.4065 71.0851 89.7357 71.1752 88.9497 71.2771C86.9609 71.5356 85.246 71.7864 83.8051 72.0253C82.3641 72.2682 81.5821 72.4288 81.463 72.515C81.4432 72.5503 81.4273 72.6051 81.4114 72.6835C81.3915 72.7618 81.3876 72.8363 81.3876 72.9029C81.3876 73.1105 81.3399 73.4278 81.2447 73.8588C81.1494 74.2897 81.0303 74.7246 80.8914 75.1634C80.7524 75.6021 80.6294 75.943 80.5262 76.1859C79.8632 77.463 79.0415 78.0977 78.065 78.0977C77.7316 78.0977 77.3743 78.0193 76.9932 77.8665H76.9853ZM84.1306 66.4466C85.2659 66.3252 86.5123 66.2233 87.8739 66.1371C89.2355 66.0509 90.1961 66.0078 90.7519 66.0078H91.8793L91.9587 63.6063C91.9785 63.0539 91.9864 62.5133 91.9864 61.9805C91.9864 59.8454 91.8197 57.8121 91.4902 55.8847C91.1409 53.679 90.7638 52.1472 90.3629 51.2854C90.2954 51.113 90.2319 50.9915 90.1803 50.9249C90.1287 50.8583 90.081 50.8192 90.0374 50.8074C89.9937 50.7956 89.9381 50.8113 89.8667 50.8466C89.3943 51.1208 88.779 51.7868 88.0208 52.8367C87.2626 53.8867 86.5322 55.0855 85.8335 56.4292C85.0317 57.9649 84.3965 59.3988 83.9361 60.7308C83.4716 62.0667 83.0389 63.6455 82.642 65.4711L82.38 66.6582L82.7214 66.6072C82.8246 66.5916 83.0072 66.5681 83.2731 66.5446C83.5351 66.5171 83.8209 66.4897 84.1345 66.4544L84.1306 66.4466Z" fill="#FE8801"/>
<path d="M113.049 79.0066C111.704 78.7128 110.719 77.9802 110.092 76.8088C109.866 76.4288 109.679 75.3632 109.528 73.6042C109.381 71.8451 109.211 68.8325 109.016 64.5583C108.806 60.1471 108.703 56.5938 108.703 53.8867C108.703 50.9759 108.826 49.0562 109.068 48.1238C109.576 46.3492 110.501 45.1033 111.842 44.3786C112.017 44.2924 112.184 44.214 112.339 44.1474C112.497 44.0808 112.593 44.0456 112.628 44.0456C112.68 44.0456 112.783 44.0182 112.942 43.9672C113.097 43.9163 113.264 43.8379 113.438 43.7361C115.181 42.9957 116.924 42.5295 118.662 42.3414C120.397 42.1534 121.767 42.0554 122.759 42.0554C123.894 42.0554 124.958 42.1338 125.954 42.2866C128.924 42.7528 131.389 43.7283 133.35 45.2209C135.315 46.7096 136.462 48.1787 136.792 49.6243C137.121 51.0699 137.288 52.1238 137.288 52.778C137.288 54.5527 136.792 56.4723 135.795 58.5408C134.12 61.005 132.163 63.0422 129.932 64.6524C127.697 66.2625 125.538 67.524 123.454 68.4368C121.366 69.3496 119.706 69.996 118.468 70.376C118.452 70.3956 118.42 70.521 118.376 70.7639C118.333 71.0068 118.289 71.281 118.245 71.5905C118.202 71.9 118.162 72.1664 118.126 72.3897C118.039 73.612 117.948 74.5561 117.852 75.2182C117.757 75.8803 117.634 76.3857 117.487 76.7304C117.34 77.0752 117.126 77.3847 116.848 77.6589C116.689 77.8313 116.515 77.9998 116.324 78.1643C116.134 78.3288 115.975 78.4424 115.852 78.513C115.467 78.7363 115.078 78.8812 114.689 78.9517C114.296 79.0183 113.958 79.0536 113.68 79.0536C113.47 79.0536 113.264 79.0379 113.053 79.0027L113.049 79.0066ZM121.612 61.3341C122.608 60.817 123.382 60.39 123.942 60.057C124.502 59.7201 125.077 59.3283 125.669 58.8817C126.558 58.2274 127.463 57.4517 128.376 56.5585C129.293 55.6614 129.952 54.8387 130.353 54.0904C130.754 53.3421 130.956 52.7192 130.956 52.2178C130.956 51.873 130.889 51.5361 130.746 51.2109C130.381 50.4196 129.356 49.7888 127.681 49.3226C126.443 49.0288 125.327 48.8643 124.331 48.8212C123.338 48.7781 122.656 48.7546 122.291 48.7546C121.119 48.7546 120.064 48.8408 119.123 49.0131L118.861 49.0641V54.1296C118.861 55.5243 118.849 56.8798 118.833 58.1961C118.813 59.5163 118.797 60.4409 118.781 60.9737L118.678 62.7288L119.305 62.4702C119.496 62.384 119.806 62.2313 120.234 62.0197C120.663 61.8042 121.119 61.577 121.608 61.3341H121.612Z" fill="#FE8801"/>
<path d="M147.233 79.0067C145.887 78.7129 144.902 77.9803 144.275 76.8089C144.049 76.4289 143.862 75.3633 143.711 73.6043C143.565 71.8453 143.394 68.8326 143.199 64.5585C142.989 60.1472 142.886 56.5939 142.886 53.8868C142.886 50.976 143.009 49.0564 143.251 48.124C143.759 46.3493 144.684 45.1035 146.026 44.3787C146.2 44.2925 146.367 44.2142 146.522 44.1476C146.681 44.081 146.776 44.0457 146.812 44.0457C146.863 44.0457 146.967 44.0183 147.125 43.9674C147.28 43.9164 147.447 43.8381 147.622 43.7362C149.364 42.9958 151.107 42.5296 152.846 42.3415C154.58 42.1535 155.95 42.0555 156.942 42.0555C158.078 42.0555 159.141 42.1339 160.138 42.2867C163.107 42.7529 165.572 43.7284 167.533 45.221C169.498 46.7097 170.645 48.1788 170.975 49.6244C171.304 51.07 171.471 52.1239 171.471 52.7781C171.471 54.5528 170.975 56.4724 169.978 58.541C168.303 61.0052 166.346 63.0423 164.115 64.6525C161.88 66.2626 159.721 67.5241 157.637 68.4369C155.549 69.3497 153.89 69.9961 152.651 70.3761C152.635 70.3957 152.603 70.5211 152.56 70.764C152.516 71.0069 152.472 71.2811 152.429 71.5906C152.385 71.9001 152.345 72.1665 152.31 72.3898C152.222 73.6121 152.131 74.5563 152.036 75.2183C151.94 75.8804 151.817 76.3858 151.671 76.7306C151.524 77.0753 151.309 77.3848 151.031 77.659C150.873 77.8314 150.698 77.9999 150.507 78.1644C150.317 78.329 150.158 78.4426 150.035 78.5131C149.65 78.7364 149.261 78.8813 148.872 78.9519C148.479 79.0185 148.142 79.0537 147.864 79.0537C147.653 79.0537 147.447 79.038 147.236 79.0028L147.233 79.0067ZM155.795 61.3342C156.791 60.8171 157.565 60.3901 158.125 60.0571C158.685 59.7202 159.26 59.3284 159.852 58.8818C160.741 58.2276 161.646 57.4519 162.559 56.5586C163.476 55.6615 164.135 54.8388 164.536 54.0905C164.937 53.3423 165.139 52.7194 165.139 52.2179C165.139 51.8731 165.072 51.5362 164.929 51.2111C164.564 50.4197 163.54 49.789 161.865 49.3228C160.626 49.0289 159.511 48.8644 158.514 48.8213C157.522 48.7782 156.839 48.7547 156.474 48.7547C155.303 48.7547 154.247 48.8409 153.306 49.0133L153.044 49.0642V54.1297C153.044 55.5244 153.032 56.8799 153.016 58.1962C152.996 59.5165 152.981 60.441 152.965 60.9738L152.861 62.7289L153.489 62.4704C153.679 62.3842 153.989 62.2314 154.418 62.0198C154.846 61.8044 155.303 61.5771 155.791 61.3342H155.795Z" fill="#FE8801"/>
<path d="M192.514 78.3054C190.628 78.1173 188.918 77.326 187.381 75.9274C186.822 75.375 186.544 74.8069 186.544 74.2232C186.544 74.137 186.552 74.0508 186.572 73.9646C186.659 73.2751 187.095 72.7227 187.881 72.3114C188.108 72.2095 188.334 72.1547 188.564 72.1547H188.985C189.315 72.1547 189.588 72.1978 189.795 72.284C189.898 72.3192 190.053 72.3937 190.251 72.5151C190.45 72.6365 190.664 72.7658 190.89 72.9029C191.117 73.0597 191.339 73.1889 191.557 73.2908C191.776 73.3927 191.938 73.4553 192.042 73.471C192.165 73.4867 192.284 73.4945 192.407 73.4945C193.177 73.4945 193.935 73.0557 194.685 72.1782C195.559 71.1635 196.289 69.714 196.885 67.8374C197.008 67.4418 197.155 66.8776 197.329 66.145C197.504 65.4124 197.663 64.7112 197.802 64.0412C197.94 63.3674 198.012 62.9639 198.012 62.8268C198.012 62.8111 198.004 62.8033 197.988 62.8033C197.968 62.8033 197.929 62.8385 197.857 62.9051C197.77 62.9913 197.655 63.1284 197.516 63.3165C195.404 65.7297 192.506 66.9873 188.822 67.0892C187.445 67.0892 186.214 66.8659 185.131 66.4153C184.047 65.9687 182.983 65.2518 181.935 64.2724C180.45 62.8581 179.271 60.9306 178.402 58.486C177.632 56.1785 177.251 53.7222 177.251 51.1209C177.251 50.1728 177.302 49.2012 177.406 48.2022C177.564 46.7214 177.83 45.6088 178.204 44.8683C178.581 44.1279 179.152 43.5873 179.918 43.2425C180.478 42.9996 181.018 42.8821 181.542 42.8821C182.38 42.8821 183.181 43.1837 183.952 43.7871C184.579 44.2885 185.031 44.978 185.301 45.8673C185.571 46.7566 185.778 48.2062 185.917 50.2198C186.25 54.7525 186.762 57.7299 187.461 59.1599C188.143 60.6251 189.136 61.3577 190.446 61.3577C190.724 61.3577 190.962 61.3302 191.152 61.2793C191.343 61.2284 191.605 61.1148 191.938 60.9424C193.665 60.1001 194.991 58.1883 195.916 55.207C196.23 54.1218 196.583 52.492 196.976 50.3217C197.369 48.1513 197.627 46.3766 197.75 45.0015C197.786 44.4491 197.881 44.0339 198.04 43.7479C198.195 43.4658 198.449 43.2347 198.798 43.0623C198.937 42.9957 199.072 42.9369 199.203 42.8938C199.334 42.8507 199.501 42.8233 199.699 42.8155C199.901 42.8076 200.175 42.8037 200.525 42.8037C200.715 42.7881 200.882 42.7763 201.021 42.7763C201.16 42.7763 201.275 42.7841 201.362 42.8037C201.553 42.8037 201.712 42.8233 201.835 42.8664C201.958 42.9095 202.097 42.9839 202.251 43.0858C203.7 43.8968 204.772 45.6597 205.471 48.3824C206.011 50.2943 206.281 52.5939 206.281 55.2814C206.281 55.728 206.273 56.1864 206.257 56.6526C206.17 62.388 205.122 67.0931 203.117 70.76C202.557 71.7943 201.922 72.7776 201.207 73.7178C200.493 74.658 199.818 75.3946 199.191 75.9274C197.234 77.5297 195.213 78.3289 193.117 78.3289C192.927 78.3289 192.724 78.321 192.514 78.3014V78.3054Z" fill="#FE8801"/>
<path d="M0.803077 19.2826C1.61288 20.2934 2.72437 21.0808 3.73265 21.8918C4.72506 22.691 5.64998 23.5803 6.90834 23.9524C9.33775 24.6772 11.7354 23.4431 11.9537 20.8614C12.0688 19.5255 10.4373 18.2758 9.15514 18.7576H9.39332C9.97289 18.9888 10.5485 19.2238 11.128 19.4628C10.9057 19.1886 10.6358 18.93 10.3262 18.7537C9.58783 18.4991 9.38141 18.4051 9.70295 18.4795C9.82998 18.5147 9.80616 18.4912 9.63547 18.409C9.09163 18.0799 10.3857 18.9535 9.30599 18.1857C8.88521 17.8879 8.47237 17.5902 8.04365 17.3042C6.5868 16.3209 5.17759 15.3258 3.53417 14.6715C2.40283 14.221 0.945983 14.9732 0.374358 15.9409C-0.300476 17.0809 0.0290018 18.3149 0.811016 19.2865L0.803077 19.2826Z" fill="#FF8B00"/>
<path d="M21.0004 0.544709C20.6868 0.317486 20.3454 0.176451 19.9683 0.0863455C18.3844 -0.293665 16.9672 0.579968 16.4433 2.06084C15.7922 3.89429 16.4909 6.0294 16.8402 7.86286C17.2014 9.75116 17.6302 12.2506 19.5356 13.1791C20.4367 13.6179 21.7943 13.657 22.5049 12.7991C24.0371 10.946 23.5489 8.70515 23.009 6.51519C22.5644 4.70916 22.2945 2.82086 21.5958 1.1872L19.611 4.59947L19.8889 4.58771C22.1913 4.4741 22.7232 1.80227 21.0004 0.540792V0.544709Z" fill="#42C2B2"/>
<path d="M33.2415 15.7923C35.913 14.5465 38.2591 11.9216 39.3865 9.26156C40.2598 7.20088 37.2627 4.97174 35.4684 6.28807C33.1264 8.004 31.1217 10.7385 30.169 13.4613C29.518 15.3182 31.7291 16.4974 33.2455 15.7923H33.2415Z" fill="#1AB3D3"/>
<path d="M81.5798 30.8514C81.2464 30.726 80.9169 30.6045 80.5795 30.5027C79.8729 30.2872 79.2576 30.7613 79.0115 31.3802L78.9043 31.6545L79.8292 30.7417L79.3012 30.8866C77.9317 31.2666 77.2172 32.7592 77.765 34.0442C78.3327 35.3723 79.861 35.8111 81.1273 35.1647C82.8421 34.2871 84.43 33.0883 85.8789 31.8151C87.0976 30.7417 87.0698 28.5478 85.8789 27.4704C84.6404 26.3461 82.7032 26.2521 81.4766 27.4704C80.115 28.822 78.8606 30.3264 77.8841 31.964C79.1266 31.8073 80.3691 31.6466 81.6076 31.4899L81.1154 31.0786L81.5044 32.0031L81.5203 31.7172C81.3099 32.0776 81.0995 32.4419 80.8891 32.8023C81.1948 32.6691 81.4925 32.5242 81.7862 32.3675C82.4809 32.0031 82.211 31.0903 81.5838 30.8514H81.5798Z" fill="#42C2B2"/>
<path d="M70.1625 30.3184C72.584 30.0324 73.5129 27.9757 73.7511 25.8014C73.8622 24.7867 73.759 23.7603 73.2668 22.8436C72.7229 22.0679 72.584 21.9073 72.842 22.3695L72.3418 21.731C71.7226 21.1198 70.8294 20.7555 69.9521 20.8182C70.6309 21.0963 71.3137 21.3745 71.9925 21.6526C71.8417 21.5116 71.6829 21.3823 71.5162 21.2609C70.5714 20.5283 69.3964 20.2109 68.2849 20.8495C67.2171 21.4646 66.828 22.6673 67.0583 23.8191C67.1059 24.0189 67.1416 24.2226 67.1615 24.4263C67.4076 23.5017 67.6577 22.5772 67.9038 21.6526C67.4949 22.0483 67.1575 22.5733 67.0027 23.1178C66.84 23.9993 66.8161 24.2265 66.9352 23.8034C67.0583 23.3568 67.0345 23.6075 66.8598 24.5517C66.8955 25.3509 67.2171 26.0404 67.4156 26.7965C67.4989 27.1138 67.3878 26.5027 67.4473 27.055C67.491 27.4468 67.5624 27.9678 67.6895 28.3674C67.9872 29.3273 69.0153 30.4477 70.1546 30.3145L70.1625 30.3184Z" fill="#FF8B00"/>
<path d="M213.996 42.467V43.2349H212.496V47.0977H211.567V43.2349H210.066V42.467H213.996ZM219.066 47.0977L218.895 44.3749C218.879 44.0184 218.879 43.5757 218.859 43.0821H218.808C218.688 43.4895 218.55 44.0341 218.411 44.4611L217.565 47.0311H216.6L215.755 44.3945C215.668 44.038 215.533 43.4935 215.429 43.0821H215.378C215.378 43.5091 215.362 43.9518 215.342 44.3749L215.171 47.0977H214.274L214.62 42.467H216.017L216.827 44.7314C216.93 45.0879 217.017 45.4288 217.136 45.9067H217.152C217.271 45.4797 217.375 45.0919 217.478 44.751L218.288 42.471H219.633L219.994 47.1016H219.062L219.066 47.0977Z" fill="#FE8801"/>
</g>
<defs>
<clipPath id="clip0_0_8">
<rect width="220" height="86" fill="white"/>
</clipPath>
</defs>
</svg>
